<svg xmlns="http://www.w3.org/2000/svg" xmlns:xlink="http://www.w3.org/1999/xlink" viewBox="0 0 1920 328"><defs><style>.cls-1{fill:none;}.cls-2{clip-path:url(#clip-path);}.cls-3{fill:#251e1c;}.cls-4,.cls-5,.cls-6,.cls-7,.cls-8{opacity:0.15;}.cls-4{fill:url(#名称未設定グラデーション_492);}.cls-5{fill:url(#名称未設定グラデーション_492-2);}.cls-6{fill:url(#名称未設定グラデーション_492-3);}.cls-7{fill:url(#名称未設定グラデーション_492-4);}.cls-8{fill:url(#名称未設定グラデーション_492-5);}.cls-9{fill:url(#名称未設定グラデーション_25);}.cls-10{fill:url(#名称未設定グラデーション_25-2);}</style><clipPath id="clip-path"><rect class="cls-1" width="1920" height="328"/></clipPath><linearGradient id="名称未設定グラデーション_492" x1="201.07" y1="637.89" x2="1008.88" y2="1104.28" gradientTransform="translate(1957.63 784.48) rotate(180)" gradientUnits="userSpaceOnUse"><stop offset="0" stop-color="#fff"/><stop offset="0.79" stop-color="#090000"/></linearGradient><linearGradient id="名称未設定グラデーション_492-2" x1="521.55" y1="470.62" x2="933.89" y2="708.69" xlink:href="#名称未設定グラデーション_492"/><linearGradient id="名称未設定グラデーション_492-3" x1="817.74" y1="455.57" x2="1947.11" y2="1107.61" gradientTransform="translate(-449 -113.05)" xlink:href="#名称未設定グラデーション_492"/><linearGradient id="名称未設定グラデーション_492-4" x1="669.94" y1="443.69" x2="1233.97" y2="769.33" gradientTransform="translate(-449 -113.05)" xlink:href="#名称未設定グラデーション_492"/><linearGradient id="名称未設定グラデーション_492-5" x1="558.19" y1="440.49" x2="937.08" y2="659.24" gradientTransform="translate(-449 -113.05)" xlink:href="#名称未設定グラデーション_492"/><linearGradient id="名称未設定グラデーション_25" y1="313.89" x2="1920" y2="313.89" gradientUnits="userSpaceOnUse"><stop offset="0" stop-color="#d1b039"/><stop offset="0.32" stop-color="#f7ebbf"/><stop offset="0.79" stop-color="#d1b039"/></linearGradient><linearGradient id="名称未設定グラデーション_25-2" y1="14.6" y2="14.6" xlink:href="#名称未設定グラデーション_25"/></defs><g id="レイヤー_1" data-name="レイヤー 1"><g class="cls-2"><rect class="cls-3" y="1.57" width="1920" height="326.43"/><polygon class="cls-4" points="1487.06 612.32 2025.6 -319.4 948.52 -319.4 1487.06 612.32"/><polygon class="cls-5" points="1298.52 551.59 1573.41 76 1023.62 76 1298.52 551.59"/><polygon class="cls-6" points="745.52 -308.6 -7.39 994 1498.43 994 745.52 -308.6"/><polygon class="cls-7" points="409.11 5.46 33.09 656 785.13 656 409.11 5.46"/><polygon class="cls-8" points="235.6 109 -16.99 546 488.19 546 235.6 109"/><rect class="cls-9" y="299.79" width="1920" height="28.21"/><rect class="cls-10" width="1920" height="29.21"/></g></g></svg>