<?xml version="1.0" encoding="utf-8"?>
<!-- Generator: Adobe Illustrator 25.2.3, SVG Export Plug-In . SVG Version: 6.00 Build 0)  -->
<svg version="1.1" id="レイヤー_1" xmlns="http://www.w3.org/2000/svg" xmlns:xlink="http://www.w3.org/1999/xlink" x="0px"
	 y="0px" viewBox="0 0 465 373" style="enable-background:new 0 0 465 373;" xml:space="preserve">
<style type="text/css">
	.st0{fill:#162631;}
	.st1{fill:#F49800;}
	.st2{fill:#303030;}
</style>
<path class="st0" d="M351.2,246.5c0.5,0,1-0.1,1.6-0.1c0.2-0.2,0.4-0.3,0.6-0.3l0,0c1.2,0.1,1.5-0.7,1.9-2.2
	c0.1-0.6,0.4-1.2,0.7-1.8c0.2-0.2,0.4-0.3,0.6-0.4c4.2-13.1,15.1-14.1,18.5-19.5c-0.2,4.5-4,11.6-7.8,15.9c-3.2,3.7-7.2,3.5-10,5.1
	c0,0.1-0.1,0.2-0.2,0.3l0,0l0,0c-0.1,0.3-0.2,0.6-0.2,0.9c0,0.1-0.1,0.2-0.1,0.4c1.3-0.7,2.7-1.2,5.5-0.5l2.4,0.6
	c3.3,0.9,3.4,0.9,5.6-0.8c0.1-0.5,0.2-0.9,0.2-1.4c0-0.7,0.2-1.3,0.5-1.9c0.1-0.2,0.2-0.3,0.4-0.4c1.5-13.4,11.9-18.3,14.1-24.5
	c0.8,4.2-1.4,12.2-4.3,17.6c-2.4,4.6-6.4,5.9-8.9,8.5c-0.1,0.3-0.1,0.5-0.1,0.8c2.6-1.4,5.3-2.5,8.1-3.4l1.9-0.7
	c0.1-0.1,0.2-0.1,0.3-0.2h0.2c0.7-0.3,1.4-0.6,1.9-0.8c0.8-0.8,1.2-1.8,1.2-2.9c-1.9-13.4,7.7-22,8.5-28.6
	c1.8,3.6,1.2,11.9-0.4,17.9c-1.3,4.7-4.4,7.3-6.4,10.2l0,0c4.4-5.6,7.2-6.9,9-7.3h0.1c0.8-0.1,1.5-0.3,2.2-0.7c0-0.2,0-0.4,0-0.6
	c-0.1-0.7-0.1-1.4,0-2.1c-4.8-11.7,2.8-23.2,2.2-29.6c2.5,2.7,3.8,10.5,3.5,16.7c-0.2,4.4-2.4,7.8-3.8,10.9c0.2,0.4,0.3,0.8,0.1,1.2
	c2-3.2,4.3-6.2,6.6-9.2c-0.1-0.5,0.2-1.1,0.7-1.3c0.3-0.1,0.5-0.2,0.6-0.3c0.2-0.3,0.4-0.5,0.6-0.7c0-0.3,0-0.7-0.1-1
	c-0.1-0.7-0.1-1.4-0.1-2.2C402,199,407,185.8,405,180c3.1,1.6,6.1,8.3,7.1,14.1c0.7,4.2-0.7,8.1-1.4,11.6c0.3,0.3,0.3,0.7,0.2,1.1
	l0,0c-0.1,0.6-0.2,1.3-0.1,1.9c0.7-1.6,1.5-4,2.3-6c1.5-4.2,2.5-6.8,3.3-7.8c1.4-1.8,1.2-2.2,0.5-3.7l-0.4-0.8
	c-9.5-5.6-7.3-20.1-10.6-24.7c3.4,0.3,7.9,5.5,10.2,10.5c1.5,3.4,1.2,7.2,1.2,10.6c0.1,0.1,0.2,0.3,0.2,0.5c0.1,0.8,0.4,1.6,0.8,2.4
	c0.3-2.1,0.6-4.6,0.9-6.6c0.5-4,0.7-6.4,1.3-7.5l0.1-0.1c0.8-2.4,0.6-2.8-0.4-4l-0.2-0.3c-10.8-1.6-11.8-15.9-16-18.9
	c3.5-1,9,2.1,12.4,5.9c2.3,2.6,2.8,6.4,3.5,9.5c0.2,0,0.4,0.2,0.5,0.4c0.3,0.6,0.7,1.2,1.1,1.8c-0.1-2.1-0.3-4.1-0.6-6.2
	c-0.2-1.3-0.3-2.6-0.4-3.9c0-0.2-0.1-0.3,0-0.5l0,0c0.2-3.1,0.2-5.2-0.5-6.2c-0.5-0.6-1.2-0.9-2-0.8c-10.3,1.6-14.4-10.6-19.1-11.8
	c3.2-2.2,9.4-1.3,13.6,0.9c3.3,1.8,4.5,6.1,6.3,8.7c0.5,0,1.1,0.2,1.5,0.5c-0.5-1.5-1.1-3-1.8-4.4c-1-2-1.8-4.1-2.3-6.3
	c-0.1-0.6-0.1-1-0.1-1.4c-0.2-2.5-0.3-3.2-2.3-3.7c-10.5,6.4-17.4-4-22.5-3.3c2.7-3.2,9.1-4.7,13.7-4.2c3.2,0.4,5.2,3,7.1,4.9
	c0.8,0.1,1.5,0.3,2.3,0.5c-0.8-1-1.7-1.9-2.6-2.7c-1.8-1.3-3.2-3-4.3-4.9c-6.3-0.6-13.4-1.8-18.9-19.8c4,7.6,20.8,3.3,20.2,18.1
	c1,1.8,2.4,3.4,4.1,4.7c0.9,0.7,1.7,1.5,2.5,2.3c0-0.3,0-0.6,0-0.9c-4.2-6.4-5.9-11-4.9-27.9c2.4,1.4,11.5,14.3,6.6,27.8
	c0.1,1.3,0.2,2.6,0.4,3.8c0.2,1.2,0.3,2.5,0.3,3.8c0,0.2,0,0.3-0.1,0.4v0.4c0,0.4,0.1,0.8,0.1,1.3c0.5,1.9,1.2,3.8,2.1,5.6
	c0.6,1.2,1.1,2.5,1.5,3.7c0-0.2,0-0.4,0.1-0.6c-2.6-8.1-3.2-13.2,1.5-29.8c1.9,2.3,7.4,18.1,0.3,29.7c-0.2,1-0.2,2.1-0.2,3.1
	c0.2,1.6-0.1,3.2-0.9,4.5c0,1.1,0,2.2-0.1,3.4c0,0.1,0,0.1,0,0.2l0,0c0,1.3,0.2,2.7,0.4,4c0.2,1.7,0.5,3.6,0.6,5.5
	c0.1-0.1,0.2-0.3,0.2-0.4c-0.7-9-0.1-14.3,7.9-29.1c1.3,2.9,2.9,20.1-5.8,29.1c-0.1,0.3-0.2,0.6-0.4,0.8c-0.8,0.7-1,1.9-1.3,3.2
	c-0.2,1.5-0.7,3-1.7,4.2l-0.1,0.4l0,0c0,0.1-0.1,0.2-0.1,0.3c-0.4,2-0.7,4.1-0.9,6.2c-0.3,2.7-0.6,5.1-0.9,7.1
	c0.2-0.3,0.3-0.5,0.5-0.7c1.4-9.7,2.9-14.7,13.8-26.8c0.5,3.3-1.6,20.2-11,26.3c0,0.5-0.2,1-0.7,1.2c-0.9,0.3-1.4,1.4-2,2.6
	s-1.4,2.7-2.7,3.3c-0.1,0.1-0.1,0.2-0.2,0.3c-0.6,0.8-1.9,4.3-2.9,7.1c-0.7,2-1.4,3.7-1.9,5.1c0.2-0.2,0.5-0.4,0.7-0.5
	c3.2-8.6,5.9-12.9,18.3-20.7c-0.2,3.6-6.3,20.6-17,22.3c-0.8,0.3-1.4,0.8-1.9,1.4c-0.6,0.8-1.5,1.4-2.4,1.8
	c-0.2,0.3-0.5,0.6-0.8,0.8c-3.1,3.8-7.1,9.1-8.7,12.2l0,0c0.5-0.7,1.1-1.1,1.9-1.3c4.8-7.1,8.3-10.4,21.2-13.5
	c-1,3.4-9.9,17.4-19.9,16c0,0,0,0.1-0.1,0.1c-0.3,0.3-0.7,0.3-1,0.1c-0.1-0.1-0.1-0.2-0.2-0.2l0,0c0-0.1-0.1-0.2-0.1-0.2l0,0
	c-0.3,0.2-0.6,0.5-0.8,0.7c-0.6,0.7-1.8,1.9-2.9,1.3c-0.5,0.2-0.9,0.3-1.4,0.3c-1.7,0.1-4.5,0.2-10.2,8.2c0.5,0.2,0.9,0.4,1.3,0.6
	c6.3-5.7,10.1-7.9,23.2-6.1c-1.6,3-13.2,13.8-22.1,8.5c0,0,0,0.1-0.1,0.1l0,0c-0.5,0.4-1,0.1-1.6-0.3c-1.1-0.6-2.1-1.1-3-0.2l0,0
	c-0.1,0.1-0.3,0.2-0.5,0.2c-0.6,0.3-1.1,0.5-1.8,0.6c-0.7,0.3-1.5,0.5-2.4,0.9c-2.7,0.9-5.3,2-7.8,3.2c0.3,0.2,0.5,0.4,0.7,0.5h0.1
	c7-3.3,11-4,22.7,2.5c-2.2,2.4-15.7,9.1-22.8-0.2c-0.2,0.1-0.4,0.1-0.6,0c-0.1-0.1-0.3-0.2-0.4-0.3c-0.8-0.6-1.3-0.9-1.5-0.8
	c-0.5,0.6-1.2,1-2,1.1c-0.1,0-0.1,0-0.2,0c-1.2,0.5-2.1,0.3-4.7-0.4l-2.4-0.6c-2.3-0.6-3.3-0.3-4.4,0.2l0.3,0.3
	c7.2-0.7,11.1,0.1,20.5,10.9c-2.6,1.6-16.4,3.2-20.9-8.4c-0.1,0-0.2-0.1-0.3-0.2c-0.1-0.1-0.2-0.3-0.4-0.4c-0.3-0.4-0.7-0.8-1.1-1.1
	c-0.2,0.1-0.5,0.2-0.8,0.3c1.2,1.1,2.1,3.6,3,7.8c0.1,0.6-0.1,1.1-0.6,1.4c-0.5,0.2-0.9-0.1-1-0.6c-1.2-6-2.4-6.8-2.7-6.9
	c-0.9-0.3-1.7-0.6-2.6-1L351.2,246.5z"/>
<path class="st0" d="M113.1,246.5c-0.5,0-1-0.1-1.6-0.1c-0.2-0.2-0.4-0.3-0.7-0.3l0,0c-1.2,0.1-1.5-0.7-1.9-2.2
	c-0.1-0.7-0.4-1.3-0.7-1.8c-0.1-0.2-0.4-0.3-0.6-0.4c-4.2-13.1-15.1-14.1-18.5-19.5c0.2,4.5,4,11.6,7.8,15.9c3.2,3.7,7.2,3.5,10,5.1
	c0,0.1,0.1,0.2,0.2,0.3l0,0l0,0c0.1,0.3,0.2,0.6,0.3,0.9c0,0.1,0.1,0.2,0.1,0.4c-1.3-0.7-2.7-1.2-5.6-0.5l-2.4,0.6
	c-3.3,0.9-3.4,0.9-5.6-0.8c-0.1-0.5-0.2-0.9-0.2-1.4c0-0.7-0.2-1.3-0.5-1.9c-0.1-0.2-0.3-0.3-0.4-0.4c-1.5-13.4-11.9-18.3-14-24.5
	c-0.9,4.2,1.4,12.2,4.2,17.6c2.4,4.6,6.4,5.9,8.9,8.5c0.1,0.3,0.1,0.5,0.1,0.8c-2.6-1.4-5.3-2.5-8.1-3.4l-1.9-0.7
	c-0.1-0.1-0.2-0.1-0.3-0.2h-0.2c-0.7-0.3-1.4-0.6-1.9-0.8c-0.8-0.8-1.2-1.8-1.2-2.9c1.9-13.4-7.7-22-8.5-28.6
	c-1.7,3.6-1.2,11.9,0.4,17.9c1.3,4.7,4.4,7.3,6.4,10.2l0,0c-4.4-5.6-7.2-6.9-9.1-7.3h-0.1c-1.7-0.3-2.1-0.6-2.2-0.7
	c0-0.2,0-0.4,0-0.6c0.1-0.7,0.1-1.4,0-2.1c4.8-11.7-2.8-23.2-2.2-29.6c-2.5,2.7-3.8,10.5-3.5,16.7c0.2,4.4,2.4,7.8,3.8,10.9
	c-0.2,0.4-0.3,0.8-0.1,1.2c-2.1-3.2-4.3-6.2-6.6-9.2c0.1-0.5-0.2-1.1-0.7-1.3c-0.2-0.1-0.4-0.2-0.6-0.3l-0.6-0.7c0-0.3,0-0.7,0.1-1
	c0.1-0.7,0.1-1.4,0.1-2.2c7.1-9.1,2.1-22.3,4.1-28.1c-3.1,1.6-6.1,8.3-7.1,14.1c-0.8,4.2,0.7,8.1,1.4,11.6c-0.3,0.3-0.3,0.7-0.2,1.1
	l0,0c0.2,0.6,0.2,1.3,0.2,1.9c-0.7-1.6-1.5-4-2.3-6c-1.5-4.2-2.5-6.8-3.3-7.8c-1.4-1.8-1.2-2.2-0.5-3.7c0.1-0.2,0.2-0.5,0.3-0.8
	c9.5-5.6,7.3-20.1,10.6-24.7c-3.4,0.3-7.9,5.5-10.2,10.5c-1.5,3.4-1.2,7.2-1.2,10.6c-0.1,0.1-0.2,0.3-0.2,0.5
	c-0.1,0.8-0.4,1.6-0.7,2.4c-0.3-2.1-0.6-4.6-0.8-6.6c-0.5-4-0.7-6.4-1.3-7.5c0,0,0,0,0-0.1c-0.8-2.4-0.6-2.8,0.3-4l0.2-0.3
	c10.8-1.6,11.8-15.9,16-18.9c-3.5-1-9,2.1-12.4,5.9c-2.3,2.6-2.7,6.4-3.5,9.5c-0.2,0-0.4,0.2-0.5,0.4c-0.3,0.6-0.7,1.2-1.1,1.8
	c0.1-2.1,0.3-4.1,0.6-6.2c0.2-1.3,0.3-2.6,0.4-3.9c0-0.2,0-0.3,0-0.5l0,0c-0.2-3.1-0.2-5.2,0.5-6.2c0.5-0.6,1.2-0.9,2-0.8
	c10.3,1.6,14.4-10.6,19.1-11.8c-3.2-2.2-9.4-1.3-13.6,0.9c-3.3,1.8-4.5,6.1-6.3,8.7c-0.5,0-1.1,0.2-1.5,0.5c0.5-1.5,1.1-3,1.7-4.5
	c1-2,1.8-4.1,2.3-6.3c0.1-0.6,0.1-1,0.1-1.4c0.2-2.5,0.3-3.2,2.3-3.7c10.5,6.4,17.4-4,22.5-3.3c-2.7-3.2-9.1-4.7-13.7-4.2
	c-3.2,0.4-5.2,3-7.1,4.9c-0.8,0.1-1.5,0.3-2.3,0.5c0.8-0.9,1.7-1.8,2.6-2.5c1.8-1.3,3.2-3,4.3-4.9c6.3-0.6,13.4-1.8,18.9-19.8
	c-4,7.6-20.8,3.3-20.2,18.1c-1,1.8-2.4,3.4-4.1,4.7c-0.9,0.7-1.7,1.5-2.5,2.3c0-0.3,0-0.6,0-0.9c4.2-6.4,5.9-11,4.9-27.9
	c-2.4,1.4-11.5,14.3-6.6,27.8c-0.1,1.3-0.2,2.6-0.4,3.8s-0.4,2.5-0.4,3.8c0,0.2,0,0.3,0.1,0.4c0,0.1,0,0.2,0,0.4
	c0,0.4-0.1,0.8-0.1,1.3c-0.5,2-1.2,3.8-2.1,5.6c-0.5,1.2-1.1,2.5-1.5,3.7c0-0.2,0-0.4-0.1-0.6c2.6-8.1,3.2-13.2-1.5-29.8
	c-1.9,2.3-7.4,18.1-0.3,29.7c0.2,1,0.2,2.1,0.2,3.1c-0.2,1.6,0.1,3.2,0.9,4.5c0,1.1,0,2.3,0.1,3.4c0,0.1,0,0.1,0,0.2l0,0
	c0,1.3-0.2,2.7-0.4,4c-0.2,1.7-0.5,3.6-0.6,5.5c-0.1-0.2-0.2-0.3-0.2-0.4c0.7-9,0.1-14.3-7.9-29.1c-1.3,2.9-2.9,20.1,5.8,29.1
	c0,0.3,0.2,0.6,0.4,0.8c0.8,0.7,1,1.9,1.3,3.2c0.1,1.5,0.7,3,1.7,4.2l0.1,0.4l0,0c0,0.1,0.1,0.2,0.2,0.3c0.4,2,0.7,4.1,0.9,6.2
	c0.3,2.7,0.6,5.1,0.9,7.1c-0.2-0.3-0.3-0.5-0.5-0.7c-1.4-9.7-2.8-14.7-13.8-26.8c-0.5,3.3,1.6,20.2,11,26.3c0,0.5,0.3,1,0.7,1.2
	c0.9,0.3,1.4,1.4,2,2.6s1.4,2.7,2.7,3.3l0.2,0.3c0.6,0.8,1.9,4.3,2.9,7.1c0.7,2,1.4,3.7,1.9,5.1c-0.2-0.2-0.5-0.4-0.7-0.5
	c-3.2-8.6-5.9-12.9-18.3-20.7c0.2,3.6,6.3,20.6,17,22.3c0.8,0.3,1.4,0.8,1.9,1.4c0.6,0.8,1.5,1.4,2.4,1.8c0.2,0.3,0.5,0.6,0.8,0.8
	c3.1,3.8,7.2,9.1,8.7,12.2l0,0c-0.5-0.7-1.1-1.1-1.9-1.3c-4.8-7.1-8.3-10.4-21.2-13.5c1,3.4,9.9,17.4,19.9,16c0,0,0,0.1,0.1,0.1
	c0.3,0.3,0.7,0.3,1,0.1c0.1-0.1,0.1-0.1,0.2-0.2l0,0c0-0.1,0.1-0.2,0.2-0.2l0,0c0.3,0.2,0.6,0.5,0.8,0.7c0.6,0.7,1.8,1.9,2.9,1.3
	c0.5,0.2,1,0.3,1.4,0.3c1.7,0.1,4.5,0.2,10.2,8.2c-0.5,0.2-0.9,0.4-1.3,0.6c-6.3-5.7-10.1-7.9-23.2-6.1c1.7,3,13.2,13.8,22.2,8.5
	c0,0,0,0.1,0.1,0.1l0,0c0.6,0.4,1,0.1,1.7-0.3c1.1-0.6,2.1-1.1,3-0.2l0,0c0.1,0.1,0.3,0.2,0.5,0.2c0.5,0.3,1.1,0.5,1.8,0.6
	c0.7,0.3,1.5,0.5,2.4,0.9c2.7,0.9,5.3,2,7.8,3.2c-0.3,0.2-0.5,0.4-0.7,0.5h-0.1c-7-3.3-11.1-4-22.7,2.5c2.2,2.4,15.7,9.1,22.8-0.2
	c0.2,0.1,0.4,0.1,0.7,0c0.1-0.1,0.3-0.2,0.4-0.3c0.8-0.6,1.3-0.9,1.6-0.8c0.5,0.6,1.2,1,2,1.1c0.1,0,0.1,0,0.2,0
	c1.2,0.5,2.1,0.3,4.7-0.4l2.3-0.6c2.3-0.6,3.3-0.3,4.4,0.2l-0.3,0.3c-7.2-0.7-11.1,0.1-20.5,10.9c2.6,1.6,16.4,3.2,20.9-8.4
	c0.1,0,0.2-0.1,0.3-0.2c0.1-0.1,0.2-0.3,0.4-0.4c0.3-0.4,0.7-0.8,1.1-1.1c0.2,0.1,0.5,0.2,0.8,0.3c-1.2,1.1-2.1,3.6-2.9,7.8
	c-0.1,0.6,0.1,1.1,0.6,1.4c0.5,0.2,0.9-0.1,1-0.6c1.2-6,2.4-6.8,2.7-6.9c0.9-0.3,1.7-0.6,2.6-1L113.1,246.5z"/>
<path class="st0" d="M144,247.1l0.4,0.8h-9.8v-2.1h10.7v1.3l-6.2,15.5h-2l-0.3-0.3L144,247.1z"/>
<path class="st0" d="M158.2,254.2c0,6.4-2.7,8.7-5.4,8.7s-5.4-2.3-5.4-8.7s2.7-8.8,5.4-8.8S158.2,247.8,158.2,254.2z M152.8,261.8
	c1.6,0,3.1-1.5,3.1-7.5s-1.5-7.6-3.1-7.6s-3.1,1.5-3.1,7.6S151.1,261.8,152.8,261.8z"/>
<path class="st0" d="M165.2,261.6c0.7,0,1.3-0.3,1.8-0.7l0.6,0.7c-0.7,0.9-1.8,1.4-3,1.3c-1.4,0.2-2.8-0.8-2.9-2.3
	c0-0.2,0-0.4,0-0.7c0-0.6,0-1.2,0-2.2v-6.2h-2.2v-1.1l3.2-0.4l-1,0.9l0.8-4.2h1.5l-0.2,4.6v8.4C163.7,261.1,164.3,261.6,165.2,261.6
	z M167.3,250.3v1.4h-4.6v-1.4H167.3z"/>
<path class="st0" d="M170.4,245.7l-2.1-0.3v-0.9l3.9-1.2l0.4,0.2l-0.1,3.7v5.5l0.1,0.3v4c0,1.6,0,4.3,0.1,5.5h-2.2
	c0-1.2,0.1-3.9,0.1-5.5L170.4,245.7z M174.4,261.7v0.9h-6v-0.9l2.9-0.5h0.5L174.4,261.7z M180.5,254.8v2.4c0,1.7,0,4.3,0.1,5.5h-2.2
	c0.1-1.2,0.1-3.8,0.1-5.5V255c0-2.4-0.6-3.2-2.2-3.2c-1.5,0.1-2.9,0.7-3.9,1.8h-0.6v-1.2h1.3l-1.2,0.5c1.2-1.7,3.1-2.7,5.2-2.9
	C179.4,250,180.5,251.3,180.5,254.8L180.5,254.8z M179.8,261.2l2.6,0.5v0.9h-6v-0.9l2.9-0.5H179.8z"/>
<path class="st0" d="M189.4,261.6l2.6-0.4h0.5l2.9,0.4v1h-6V261.6z M197.2,245.1h1.6l6,17.6h-2.4l-5.2-15.6h0.6l-5.3,15.6h-1.2
	L197.2,245.1z M194.2,255.7h7l0.4,1.2h-7.9L194.2,255.7z M199.3,261.6l3.3-0.4h0.4l3.2,0.4v1h-7L199.3,261.6z"/>
<path class="st0" d="M209.5,262.6c0-1.2,0.1-3.9,0.1-5.5v-1.2c0-1.4,0-2.2-0.1-3.3l-2.1-0.2v-0.9l3.6-1.5l0.4,0.3l0.3,3v3.9
	c0,1.6,0,4.3,0.1,5.5L209.5,262.6z M213.5,261.7v0.9h-6v-0.9l2.9-0.5h0.6L213.5,261.7z M219.5,254.8v2.4c0,1.7,0,4.3,0.1,5.5h-2.2
	c0.1-1.2,0.1-3.8,0.1-5.5V255c0-2.4-0.6-3.2-2.2-3.2c-1.3,0-2.4,0.5-3.9,1.8h-0.6v-1.2h1.3l-1.1,0.5c1.2-1.7,3.1-2.7,5.1-2.9
	C218.5,250,219.6,251.3,219.5,254.8L219.5,254.8z M218.8,261.2l2.6,0.5v0.9h-6v-0.9l2.9-0.5H218.8z"/>
<path class="st0" d="M225.2,262.6c0.1-1.2,0.1-3.9,0.1-5.5v-1.2c0-1.4,0-2.2-0.1-3.3l-2.1-0.2v-0.9l3.5-1.5l0.4,0.3l0.3,3v3.9
	c0,1.6,0,4.3,0.1,5.5L225.2,262.6z M229.3,261.7v0.9h-6v-0.9l2.9-0.5h0.5L229.3,261.7z M235.3,254.8v2.4c0,1.7,0,4.3,0.1,5.5h-2.2
	c0-1.2,0.1-3.8,0.1-5.5V255c0-2.4-0.6-3.2-2.2-3.2c-1.3,0-2.4,0.5-3.8,1.8h-0.6v-1.2h1.4l-1.1,0.5c1.2-1.7,3.1-2.7,5.1-2.9
	C234.2,250,235.3,251.3,235.3,254.8L235.3,254.8z M234.6,261.2l2.6,0.5v0.9h-6v-0.9l2.9-0.5H234.6z"/>
<path class="st0" d="M240.9,262.6c0-1.2,0.1-3.9,0.1-5.5v-1.2c0-1.4,0-2.2-0.1-3.3l-2.1-0.2v-0.9l3.9-1.6l0.4,0.3l-0.1,3.5v3.4
	c0,1.6,0,4.3,0.1,5.5H240.9z M244.9,261.7v0.9h-6v-0.9l2.9-0.5h0.5L244.9,261.7z M240.2,245.4c0-0.9,0.7-1.8,1.6-1.8
	c0.9,0,1.8,0.7,1.8,1.6c0,0.9-0.7,1.8-1.6,1.8h-0.1c-0.9,0-1.7-0.6-1.7-1.5C240.2,245.4,240.2,245.4,240.2,245.4L240.2,245.4z"/>
<path class="st0" d="M248.3,251.7l-2.6-0.4v-1h6.3v1l-3.2,0.4H248.3z M249.1,250.3l4,10.6l-1.1,1.4l4.2-11.9h1.4l-4.7,12.5h-1.1
	l-5.2-12.5L249.1,250.3z M256.2,251.7l-2.6-0.4v-1h4.9v1l-1.8,0.4H256.2z"/>
<path class="st0" d="M270.8,254.9c0,0.5-0.1,1-0.2,1.4H261v-1.1h6.2c1.2,0,1.5-0.6,1.5-1.3c0-1.6-1.3-2.8-2.9-2.8
	c-1.7,0-3.6,1.4-3.6,5.1c0,3.3,1.7,5.1,4.3,5.1c1.4,0,2.8-0.7,3.6-1.8l0.6,0.5c-0.9,1.9-2.9,3.1-5,3c-3.5,0-5.7-2.4-5.7-6.4
	s2.7-6.6,5.9-6.6c2.6-0.1,4.7,1.9,4.8,4.5C270.8,254.6,270.8,254.8,270.8,254.9z"/>
<path class="st0" d="M275.1,257.1v-1.2c0-1.4,0-2.2-0.1-3.3l-2.1-0.2v-0.9l3.5-1.6l0.4,0.3l0.3,3.2v3.7c0,1.6,0,4.3,0.1,5.5H275
	C275.1,261.4,275.1,258.8,275.1,257.1z M273.2,261.7l2.9-0.5h0.5l2.9,0.5v0.9h-6.2L273.2,261.7z M276.2,253.6h1.5l-0.6,0.2
	c0.8-2.4,2.4-3.9,4-3.9c0.7,0,1.4,0.3,1.8,0.9c0,1.2-0.5,1.9-1.5,1.9c-0.6,0-1.1-0.2-1.6-0.6l-0.7-0.6l1.3-0.3
	c-1.6,0.8-2.8,2.4-3.1,4.1h-1L276.2,253.6z"/>
<path class="st0" d="M284.3,262l-0.1-2.8h1.4l0.7,3.1l-1.3-0.6v-0.9c0.9,0.7,2,1.1,3.2,1.1c2,0,2.9-0.8,2.9-2s-0.8-1.7-2.4-2.3
	l-1.2-0.4c-1.9-0.7-3.1-1.7-3.1-3.5s1.6-3.6,4.5-3.6c1.3,0,2.5,0.4,3.6,1.1l-0.1,2.6h-1.3l-0.5-2.6l0.9,0.4v0.7
	c-0.7-0.6-1.7-1-2.6-1c-1.6,0-2.4,0.7-2.4,1.8s0.6,1.6,2.4,2.3l0.8,0.3c2.6,1,3.6,2.2,3.6,3.8c0,1.9-1.7,3.7-5,3.7
	C286.8,263,285.5,262.7,284.3,262z"/>
<path class="st0" d="M299.7,255.8c1.3-0.5,2.6-0.8,4-1.1v0.9c-1.2,0.2-2.3,0.6-3.5,1c-2.3,0.9-2.6,1.9-2.6,2.7
	c0,1.4,0.9,1.9,2.1,1.9c0.9,0,1.4-0.3,3.1-1.5l0.5-0.4l0.4,0.5l-0.8,0.8c-1.6,1.6-2.4,2.3-4,2.3c-1.7,0.2-3.3-1.1-3.5-2.8
	c0-0.1,0-0.3,0-0.4C295.4,258.2,296.2,257.1,299.7,255.8z M302.7,260.2v-5.9c0-2.5-0.7-3.2-2.4-3.2c-0.8,0-1.6,0.2-2.3,0.5l1-0.8
	l-0.7,2.2c-0.2,0.8-0.6,1.2-1.3,1.2c-0.6,0.1-1.1-0.4-1.2-0.9c0,0,0,0,0-0.1c0.5-2,2.4-3.2,5-3.2s4,1.2,4,4.5v5.5
	c0,1.2,0.4,1.6,1,1.6c0.4,0,0.8-0.2,1-0.6l0.5,0.6c-0.4,0.8-1.3,1.3-2.2,1.3c-1.3,0-2.4-1-2.4-2.3
	C302.6,260.4,302.7,260.3,302.7,260.2L302.7,260.2z"/>
<path class="st0" d="M310.5,257.1v-1.2c0-1.4,0-2.2-0.1-3.3l-2.1-0.2v-0.9l3.5-1.6l0.4,0.3l0.3,3.2v3.7c0,1.6,0,4.3,0.1,5.5h-2.2
	C310.5,261.4,310.5,258.8,310.5,257.1z M308.5,261.7l2.9-0.5h0.5l2.9,0.5v0.9h-6.2L308.5,261.7z M311.5,253.6h1.5l-0.6,0.2
	c0.8-2.4,2.4-3.9,4-3.9c0.7,0,1.4,0.3,1.9,0.9c0,1.2-0.5,1.9-1.5,1.9c-0.6,0-1.1-0.2-1.6-0.6l-0.7-0.6l1.3-0.3
	c-1.6,0.8-2.7,2.4-3.1,4.1h-1L311.5,253.6z"/>
<path class="st0" d="M318.4,267.4c0.3-0.7,1-1.2,1.7-1.1c0.7,0,1.4,0.4,1.9,1l0.8,0.8l-1,0.6l-0.7-0.6c1.7-1,2.9-2.6,3.4-4.5
	l0.8-2.3l4-11h1.4l-4.6,12.2c-1.8,4.7-3.2,6.6-5.4,6.6C319.4,269.1,318.4,268.4,318.4,267.4z M321,251.6l-2.5-0.4v-0.9h6.2v0.9
	l-3.1,0.4H321z M324.9,264l-5.4-13.7h2.4l4.1,11.1L324.9,264z M329.3,251.6l-2.8-0.4v-0.9h5.1v0.9l-1.8,0.4H329.3z"/>
<path class="st1" d="M104.1,138.3L104.1,138.3L94,144.5l-1.8-8.8l13.2-7.8h8.1v66.7h-9.3L104.1,138.3z"/>
<path class="st1" d="M132.4,186.4c2,0.2,4.1,0.1,6.1-0.2c4.7-0.4,9-2.4,12.3-5.8c3.8-3.7,6.4-8.9,7.4-15.6H158
	c-3.1,4.3-8,6.7-13.2,6.6c-10.3,0-17.5-8.8-17.5-20.6c0-12.9,8.4-24,20.6-24c12.9,0,20.3,11.8,20.3,28.6c0,14.5-4.1,24.6-9.9,31
	c-5,5.3-11.8,8.5-19,8.9c-2.2,0.3-4.5,0.5-6.8,0.3L132.4,186.4z M147.3,135.5c-6.1,0-10.4,6.4-10.4,14.5c0,7.1,3.8,12.7,10.3,12.7
	c4.4,0,8.4-2.4,10.4-6.3c0.4-1,0.7-2,0.7-3.1C158.3,144.1,155.2,135.5,147.3,135.5L147.3,135.5z"/>
<path class="st1" d="M204.8,137.5h-22.5l-1.8,14.3c1.5-0.3,3.1-0.4,4.7-0.4c4.7-0.1,9.4,1.2,13.3,3.8c4.5,3.1,8.1,8.9,8.1,17.6
	c0,12.6-9,22.9-22.5,22.9c-6.9,0-12.4-2.2-15.4-4.3l2.1-8.7c3.9,2.4,8.4,3.7,13,3.8c6.6,0,12.9-4.6,12.8-12.7
	c0-7.7-4.6-13.4-16.5-13.4c-2.8,0-5.6,0.2-8.3,0.7l3.7-33.2h29.3L204.8,137.5L204.8,137.5z"/>
<path class="st1" d="M211.9,181.9c4,2.7,8.6,4.3,13.4,4.4c9.1,0,12.2-6.4,12.1-11.3c-0.1-8.4-6.9-11.8-13.6-11.8h-5.3v-8.6h5.3
	c5.3,0,11.7-2.9,11.7-9.8c0-4.6-2.7-8.8-9.6-8.8c-4.8,0-9.7,2.6-12.1,4.5l-2.4-8.4c3.2-2.8,9.6-5.4,16.5-5.4
	c11.8,0,17.5,7.8,17.5,16.3c0,7-3.5,12.7-10.6,15.6v0.2c7.1,1.4,12.7,7.8,12.7,16.6c0,11.2-7.8,20.2-21.9,20.2
	c-7.1,0-13.2-2.5-16.1-4.9L211.9,181.9z"/>
<path class="st0" d="M286.1,162.6v3.5h-9.9v5.6h8v3.4h-8v6.9h11v3.7h-11v9.4H273v-9.4h-15.9V182h5.3v-10.2H273v-5.6h-9.3
	c-1.4,2.9-3,5.6-4.8,8.2c-0.6-1-1.3-1.9-2.2-2.7c2.9-4.3,5.2-9,6.7-14l3.2,1.1c-0.6,1.8-1,2.8-1.5,3.8H286.1z M265.5,175v6.9h7.5
	V175H265.5z"/>
<path class="st1" d="M322.6,126.7c12.2,0,17.8,8.6,17.8,16.7c0.2,6.4-3.3,12.3-9,15.3v0.3c6.9,2.6,11.4,9.3,11.2,16.7
	c0,12-8.8,19.9-20.7,19.9c-13.1,0-20.1-8.8-20.1-18.4c0-8.1,4-13.9,10.9-17.2v-0.3c-5.5-2.8-9-8.5-8.8-14.8
	C303.8,134.2,311.9,126.7,322.6,126.7L322.6,126.7z M322.3,187.4c5.6,0.2,10.2-4.1,10.5-9.7c0-0.3,0-0.5,0-0.8
	c0-7.3-4.5-10.9-11.6-12.9c-6,1.6-9.4,6.2-9.4,12C311.6,181.8,315.7,187.4,322.3,187.4L322.3,187.4z M322.3,134.8
	c-6,0-9.2,4.5-9.2,9.5c-0.1,5.9,4.1,9.2,10.3,11c4.7-1.4,8-5.7,7.9-10.7C331.3,140.1,328.8,134.8,322.3,134.8L322.3,134.8z"/>
<path class="st0" d="M374.6,159.9v30.3c0,2.8-0.3,3.5-5.9,4.1c-0.1-1.4-0.5-2.8-1.1-4.1h3.2c0.4,0,0.6-0.2,0.6-0.8v-7.8h-12.7
	c-1.2,7.7-3.2,10.7-4.9,13.2c-0.7-1.1-1.5-2-2.5-2.8c4.2-6.3,4.7-12.6,4.7-17.7c0-1.2,0-2.6,0-14.4H374.6z M371.4,178.2v-5.8h-12.1
	c0,1.7-0.1,3.7-0.2,5.8H371.4z M359.3,163.4v5.6h12.1v-5.6H359.3z"/>
<path class="st2" d="M76.5,53v11.5H65l-0.3,2.1h12.5v9.6h-2.7v-1.3H67v1.7h-2.6v-9.1c-0.5,2.6-1.4,5.2-2.6,7.5
	c-0.6-1-1.4-1.9-2.2-2.7c3.2-5.6,3.2-8.6,3.2-19.4L76.5,53z M71.5,41.4L71.2,42c2.6,1.5,4.9,3.3,7.1,5.4l-1.8,3
	c-0.5-0.6-1.1-1.2-1.7-1.7V51h-9.5v-1.6c-1.1,1.3-2.3,2.5-3.6,3.6c-0.5-1-1.1-1.9-1.9-2.7c3.7-2.8,6.7-6.2,9.1-10.2L71.5,41.4z
	 M65.3,59.8L65.2,62h8.5v-2.2H65.3z M65.4,55.5v2h8.4v-2H65.4z M74.5,48.4c-1.6-1.5-3.2-2.8-5-4c-1,1.4-2.1,2.7-3.2,4H74.5z
	 M67.1,69.2v2.9h7.5v-2.9H67.1z M82.1,44.8v22.5h-2.8V44.8H82.1z M87.9,41.4v31.3c0,2.5-0.6,3.2-5.3,4.1c-0.2-1.3-0.5-2.5-1-3.8h3.2
	c0.3,0,0.4-0.3,0.4-0.6v-31L87.9,41.4z"/>
<path class="st2" d="M115,40.9v6.4h1.2c0.4-0.8,2.1-4.3,2.9-5.9l2.6,1.8c-0.8,1.5-1.9,3.4-2.4,4.2h5.8v3.1h-6.8
	c-0.6,1.5-1.2,2.8-1.7,3.9h6.2v3H112v2.2h9v2.8h-9v2.5h12.5V68h-9.2c3,2.5,6.6,4.4,10.4,5.5c-0.8,0.9-1.4,2-1.6,3.2
	c-4.6-1.6-8.8-4.5-12-8.2V77h-3v-8c-4.2,4.2-6.9,5.5-11.3,7.5c-0.4-1.1-0.9-2.2-1.6-3.2c3.7-1.1,7.1-2.9,10-5.4h-9.3v-3H109v-2.5
	h-8.4v-2.8h8.4v-2.2H98.6v-3h5.8c-0.4-1.3-1-3-1.4-3.9h-6.6v-3.2h5.7c-0.7-1.3-1.5-2.6-2.4-3.8l2.1-1.9c1,1.3,2,2.8,2.9,4.2
	l-1.8,1.5h3.2v-6.4h2.6v6.4h3.5v-6.4C112.2,40.9,115,40.9,115,40.9z M106.3,50.4c0.4,1.3,0.9,2.8,1.2,3.9h5.9
	c0.4-1.1,1.2-2.7,1.6-3.9H106.3z"/>
</svg>
