<?xml version="1.0" encoding="utf-8"?>
<!-- Generator: Adobe Illustrator 25.2.3, SVG Export Plug-In . SVG Version: 6.00 Build 0)  -->
<svg version="1.1" id="レイヤー_1" xmlns="http://www.w3.org/2000/svg" xmlns:xlink="http://www.w3.org/1999/xlink" x="0px"
	 y="0px" viewBox="0 0 465 373" style="enable-background:new 0 0 465 373;" xml:space="preserve">
<style type="text/css">
	.st0{fill:#333333;}
	.st1{fill:#F49800;}
	.st2{fill:#FFFFFF;stroke:#333333;stroke-width:2;stroke-miterlimit:10;}
	.st3{fill:none;stroke:#F49800;stroke-width:5;stroke-miterlimit:10;}
	.st4{fill:none;stroke:#F49800;stroke-width:3;stroke-miterlimit:10;}
	.st5{fill:none;stroke:#FFFFFF;stroke-width:7;stroke-linecap:round;stroke-linejoin:round;}
	.st6{fill:#FFFFFF;}
	.st7{clip-path:url(#SVGID_2_);}
	.st8{fill:none;stroke:#FFFFFF;stroke-width:5;stroke-miterlimit:10;}
	.st9{fill:none;stroke:#FFFFFF;stroke-width:3;stroke-miterlimit:10;}
	.st10{fill:none;stroke:#333333;stroke-width:5;stroke-miterlimit:10;}
</style>
<g id="文字">
	<path class="st0" d="M34.3,34.2c1.1-0.2,2.3-0.3,3.5-0.3c1.8-0.2,3.6,0.5,4.9,1.7c1.2,1.3,1.8,3.1,1.7,4.8c0.1,1.9-0.6,3.8-1.8,5.2
		c-1.4,1.4-3.4,2.1-5.4,2c-1,0-2,0-2.9-0.2L34.3,34.2z M36.2,45.7c0.5,0.1,0.9,0.1,1.4,0.1c3.1,0,4.8-2,4.8-5.3
		c0-3.1-1.6-4.8-4.5-4.8c-0.6,0-1.1,0-1.7,0.2V45.7z"/>
	<path class="st0" d="M49.2,35.8H45V34h10.3v1.8h-4.2v11.6h-1.9V35.8z"/>
	<path class="st0" d="M56.8,34.1c1.3-0.2,2.5-0.3,3.8-0.3c1.4-0.1,2.7,0.3,3.8,1.2c0.8,0.8,1.2,1.8,1.2,2.9c0,1.1-0.3,2.2-1.1,3
		c-1.1,1-2.7,1.6-4.2,1.5c-0.5,0-1.1,0-1.6-0.2v5.2h-1.9V34.1z M58.6,40.5c0.6,0.2,1.1,0.2,1.7,0.2c2.1,0,3.3-1,3.3-2.7
		c0-2-1.5-2.5-3.2-2.5c-0.6,0-1.3,0-1.9,0.2L58.6,40.5z"/>
	<path class="st0" d="M80.2,33.8v1.9h-4.8v8.5h6.2v2h-14v-2h6.1v-8.5H69v-1.9H80.2z"/>
	<path class="st0" d="M91.3,31.3l0.3,3.9l4.4-0.6l0.2,1.7L91.8,37l0.2,3.3l5.8-0.7l0.2,1.8l-5.9,0.7l0.6,6.4L91,48.7l-0.5-6.4
		l-6,0.8l-0.2-1.8l6-0.7l-0.3-3.3l-4.6,0.5l-0.1-1.8l4.6-0.5l-0.4-3.9L91.3,31.3z"/>
	<path class="st0" d="M111.5,33.2l1.1,1.4c-0.2,0.4-1.1,2.3-1.2,2.6c-0.5,1-1,1.9-1.6,2.8c0.4,0.5,2.3,2.7,2.6,3.2
		c0.9,1.2,1.4,1.9,2.4,3.5l-1.5,1.4c-1.3-2.3-2.8-4.4-4.5-6.5c-1.8,2.6-4.1,4.8-6.9,6.4c-0.2-0.7-0.6-1.3-1.2-1.8
		c4.3-2.2,6.9-4.8,9.7-11h-8v-1.8h8.8L111.5,33.2z"/>
	<path class="st0" d="M123.3,35.1c-1.4,4.9-2.3,8.2-5.2,12c-0.4-0.5-0.8-1-1.3-1.3c1.3-1.8,2.4-3.8,3.1-5.9c0.7-1.8,1.2-3.7,1.6-5.6
		L123.3,35.1z M126.7,33.9c2.2,3.7,3.9,7.7,4.9,11.8l-1.7,0.9c-0.9-4.1-2.5-8.1-4.7-11.7L126.7,33.9z M131.7,34.2
		c0.1,1.1-0.7,2-1.7,2.1c-1.1-0.1-1.9-1-1.8-2.1c0,0,0,0,0,0c-0.2-1,0.5-1.9,1.4-2.1s1.9,0.5,2.1,1.4
		C131.8,33.8,131.8,34,131.7,34.2L131.7,34.2z M130,35.3c0.6-0.1,1-0.7,0.9-1.3c-0.1-0.4-0.4-0.8-0.9-0.9c-0.6,0-0.9,0.7-0.9,1.1
		C129.1,34.8,129.5,35.2,130,35.3z"/>
	<path class="st0" d="M147.8,38.8v2h-13.1v-2H147.8z"/>
	<path class="st0" d="M157,31.3v5.5c2.5,1,4.9,2.2,7.1,3.7l-1,1.9c-1.9-1.4-3.9-2.6-6.1-3.5v9.7h-1.8V31.3H157z"/>
	<path class="st0" d="M180.4,33.7l1,1.6c-0.4,0.4-0.5,0.6-0.7,0.8c-1.6,2.3-3.4,4.5-5.4,6.4c0.9,1,1.6,2.1,2.4,3.2l-1.4,1.4
		c-1.6-2.7-3.5-5.1-5.8-7.2l1.1-1.4c0.9,0.9,1.8,1.8,2.7,2.7c1.6-1.7,3.1-3.6,4.5-5.6h-10.9v-1.8h12.2L180.4,33.7z"/>
	<path class="st0" d="M192.8,48.5H191V39c-1.8,1.7-3.8,3.2-6,4.4c-0.2-0.7-0.5-1.3-0.9-1.9c4.5-2.3,8.3-5.9,11-10.2l1.5,1.5
		c-2.2,2.7-2.5,3-3.8,4.5L192.8,48.5z"/>
	<path class="st0" d="M211.3,33.2l1.1,1.4c-0.2,0.4-1.1,2.3-1.2,2.6c-0.5,1-1,1.9-1.6,2.8c0.4,0.5,2.3,2.7,2.6,3.2
		c0.9,1.2,1.4,1.9,2.4,3.5l-1.5,1.4c-1.3-2.3-2.8-4.4-4.5-6.5c-1.8,2.6-4.1,4.8-6.9,6.4c-0.2-0.7-0.6-1.3-1.2-1.8
		c4.3-2.2,6.9-4.8,9.7-11h-8v-1.8h8.8L211.3,33.2z"/>
	<path class="st0" d="M229.3,34.2l0.1-0.1l0.9,1.1c-0.2,0.5-1,2.7-1.2,3.1c-0.9,2.2-2.1,4.2-3.6,5.9c-1.7,1.9-3.8,3.3-6.2,4.4
		c-0.2-0.7-0.5-1.3-1-1.8c2.6-0.9,4.9-2.5,6.6-4.6c-0.9-1-1.9-1.9-3-2.8l0.9-1.4c1.1,0.8,2.2,1.7,3.1,2.7c1-1.6,1.8-3.2,2.3-5h-4.6
		c-1.3,2.4-3,4.4-5.1,6c-0.2-0.6-0.5-1.2-1-1.7c1.3-0.9,4.3-2.9,6.1-8.7l1.7,0.7c-0.3,0.7-0.6,1.4-0.8,2L229.3,34.2z"/>
	<path class="st0" d="M247.6,38.8v2h-13.1v-2H247.6z"/>
	<path class="st1" d="M62.3,144.4h-0.2l-12.8,8.1l-2.3-11.6L64,130.6h10.3v87.6H62.3V144.4z"/>
	<path class="st1" d="M114.5,144.4h-0.2l-12.8,8.1l-2.3-11.6l16.9-10.2h10.3v87.6h-11.9V144.4z"/>
	<path class="st0" d="M187,159.1l1-1l3.9,4.3c-5.2,8.6-9.6,15.8-18.3,23.9h21.7v28H190v-3.5h-21.3v4.1h-5.4v-20.7
		c-3.2,2.3-6.6,4.3-10.1,6.1c-0.7-2.2-1.8-4.3-3.2-6.2c11-4.5,15.2-8.1,18.6-10.9c-1.3-1.6-2.9-3.6-7.2-8.3l3.6-3.8
		c2.8,2.6,5.3,5.4,7.6,8.3c4.4-4.5,8.3-9.5,11.5-15h-16.2c-4.1,5.5-9,10.3-14.5,14.4c-0.8-1.9-1.9-3.7-3.4-5.3
		c7-4.2,14.3-12.7,19.3-21.6l4.8,2.8c-0.7,1.4-1.5,2.8-2.4,4.2L187,159.1z M168.7,191.6v13.6H190v-13.6H168.7z"/>
	<path class="st0" d="M33.1,72.7c1.9-1.7,4.3-3.9,6.1-5.7c0.6,1.1,1.1,1.9,1.7,2.8c-1.7,1.8-4,4.2-5.9,6L33.1,72.7z M49.7,60.9
		l-1.2,1.7h11l0.5-0.4l2.3,2.4c-0.6,0.9-3.2,4.8-3.7,5.6c-0.7-0.6-1.3-1.2-2.1-1.8c0.6-0.9,1.2-1.8,1.7-2.6h-5.3
		c2.2,4.5,5.4,6.1,10.1,7.4c-0.7,1.1-1.1,2.2-1.4,3.4c-1.2-0.4-2.5-1-3.6-1.6v15.2h-3.6c2.4,1.4,5.1,2.4,7.9,3c-0.5,1-1,2-1.3,3.1
		c-3.4-0.8-6.6-2.3-9.5-4.3l1.1-1.8h-9.3l1.4,2.1c-3.1,1.9-6.5,3.2-10,4.1c-0.3-1.1-0.7-2.2-1.3-3.2c4-1,6.4-1.7,8.2-2.9h-3.9V74.6
		h5.3c-0.2-1-0.5-1.9-1-2.8c4.3-0.8,6.6-2,7.5-6.2h-3.3c-1,1.2-2,2.3-3.1,3.4c-0.6-0.9-1.3-1.7-2.1-2.4c2.4-2.1,4.5-4.5,6.2-7.1
		L49.7,60.9z M35.4,60.1c1.5,0.9,2.9,2,4.2,3.2L38,65.9c-1.3-1.2-2.6-2.3-4.1-3.3L35.4,60.1z M40.4,77.2v1.9h14.5v-1.9H40.4z
		 M40.4,81.4v2h14.5v-2H40.4z M40.4,85.4v2h14.5v-2H40.4z M57.1,74.6c-2.4-1.4-4.3-3.4-5.4-5.9c-1.3,2.9-2.8,4.4-6.9,5.9H57.1z"/>
	<path class="st0" d="M76.1,59.8v7.7H79v3.1h-2.9v3.4c1.2,1.7,2.5,3.4,3.9,4.9c-0.5,0.8-1.1,1.6-1.8,2.9c-0.7-0.9-1.4-1.7-2.1-2.7
		v16.9h-2.9V79.8c-1,2.8-2.3,5.6-3.9,8.1C69,86.4,68.6,85,68,83.7c2.5-4.1,4.3-8.5,5.3-13.1h-4.6v-3.1h4.5v-7.7H76.1z M93.8,64.2
		l0.6-0.2l1.8,2.2c-0.4,0.7-2.2,3.7-2.6,4.3c-0.6,0.9-1.3,1.9-2.7,4c2.4,2.3,5.1,4.3,8,6c-0.7,1.2-1.2,2.4-1.6,3.7
		c-0.6-0.3-1.1-0.7-1.6-1.1v12.7h-3.1V94h-7.8v1.8h-2.8V83.5c-0.7,0.5-1.3,0.9-1.9,1.2c-0.3-1.1-0.8-2.2-1.4-3.2
		c2.9-1.8,5.6-4.1,7.8-6.8c-1.1-1.4-2.1-2.9-3-4.5c-1,1.7-1.9,3.2-3,4.7c-0.6-0.9-1.3-1.8-2.2-2.4c1.3-1.8,4-5.3,6.2-13l3.1,1.1
		c-0.3,1-0.8,2.2-1.3,3.6L93.8,64.2z M93.7,81.7c-1.6-1.4-3.2-2.9-4.9-4.4c-1.3,1.6-2.8,3.1-4.3,4.4H93.7z M84.9,84.7V91h7.8v-6.3
		H84.9z M85.1,67.2c1,1.8,2.2,3.4,3.6,4.9c1.2-1.6,2.3-3.2,3.3-4.9H85.1z"/>
	<path class="st0" d="M120.6,61.5v3.2h-2.9v31h-2.8v-7.9l-9.8,2.5l-0.6-3.6l2.7-0.4V64.8h-2.4v-3.2H120.6z M110,64.8v4.7h4.9v-4.7
		H110z M110,72.8v4.1h4.9v-4.1L110,72.8z M110,80v5.6c1.6-0.4,3.2-0.6,4.9-1v-4.6L110,80z M131,66.2l1.9,1.7
		c-1.6,9.3-2,11.5-4.7,17.8c1.9,2.8,3.4,4.1,6.7,6.4c-0.9,0.9-1.5,2-2,3.2c-2.5-1.8-4.8-4-6.6-6.6c-1.8,2.6-3.9,5-6.4,6.9
		c-0.4-1.2-1-2.2-1.8-3.1c2.8-1.6,5.1-4,6.7-6.7c-2.4-5.2-2.9-10.5-3-15.7h-2.4v-3.4h11.2L131,66.2z M124.4,69.9
		c0,2.6,0.2,5.1,0.6,7.7c0.3,1.5,0.7,3,1.4,4.4c1.5-3.9,2.5-8,2.9-12.1H124.4z"/>
	<path class="st0" d="M147.2,95.9h-2.8V80c-0.8,1.2-1.7,2.3-2.6,3.4c-0.3-1.2-0.9-2.4-1.8-3.4c3-3.4,5.6-7.2,7.6-11.3l2.2,2.1
		c-0.6,1.3-1.6,2.9-2.7,4.7L147.2,95.9z M149.7,62.6c-2.3,2.6-4.9,4.9-7.7,6.9c-0.3-1.1-0.9-2.1-1.7-3c2.7-1.9,5.2-4.1,7.4-6.6
		L149.7,62.6z M169,76.3v3h-3.2v2.5h4.2v3h-4.1v7c0,2.2-0.8,2.9-5.2,3.8c-0.1-1.3-0.5-2.6-1.2-3.8h2.9c0.4,0,0.5-0.2,0.5-0.7v-6.3
		h-14.1v-3h14.1v-2.6h-13.2v-3L169,76.3z M166.8,61v13.1h-15.2V61H166.8z M153.7,85.5c1.4,1.1,2.6,2.3,3.8,3.6l-2,2.7
		c-1.1-1.4-2.3-2.7-3.7-3.8L153.7,85.5z M154.5,64v2.3h9V64H154.5z M154.5,69v2.4h9V69H154.5z"/>
	<path class="st0" d="M190.8,59.9v4.6h6.4v2.2c1.2-1.5,2.4-3.1,3.5-4.8l2.6,2.1c-1.9,2.6-3.9,5.1-6,7.5h8.3V75H194
		c-1.3,1.2-2.5,2.4-3.6,3.5h11.1v17.4h-3v-1.8H187v1.8h-3V83.3c-2,1.5-4.1,3-6.3,4.3c-0.2-1.2-0.9-2.3-1.9-3.1
		c2.9-1.4,5.6-3,8.1-4.9v-1.1h1.6c1.4-1.2,2.8-2.3,3.9-3.5h-12.9v-3.4h11v-3.8h-8v-3.2h8v-4.6H190.8z M187,81.7v3h11.5v-3H187z
		 M187,87.7V91h11.5v-3.4L187,87.7z M190.8,67.8v3.8h2.2c1.2-1.2,2.3-2.5,3.4-3.8H190.8z"/>
	<path class="st0" d="M222.1,60.1v6.8h2.7c-0.6-0.6-1-1.1-1.7-1.8c1-1.3,1.9-2.7,2.8-4.1l2.1,2.1c-1.1,1.4-1.9,2.7-2.8,3.8h3.1v2.7
		h-6.1v0.5c1.7,1.3,3.5,2.3,5.5,3.2c-0.5,1-1,2-1.4,3c-1.4-0.8-2.8-1.7-4.1-2.7v3.2h-2.9v-4c-1.6,1.8-3.5,3.4-5.5,4.8
		c-0.5-0.8-0.9-1.6-1.7-2.8c2.4-1.4,4.6-3.1,6.5-5.2h-5.9v-2.7h6.7v-6.8H222.1z M221.2,78.1l-1.1,2.5h8.2v2.8H226
		c-0.3,2.2-1,4.2-2,6.2c0.7,0.5,1.5,1,2.4,1.7l-1.9,3c-0.8-0.7-1.6-1.3-2.6-2c-2.4,2.1-5.3,3.3-8.4,3.7c-0.3-1.1-0.7-2.2-1.2-3.2
		c3.7-0.3,5.1-0.8,7.1-2.3c-0.9-0.6-1.8-1.1-2.8-1.6l-0.5,1l-2.5-1.6c0.7-1.5,1.6-3.4,2.2-5h-3.4v-2.8h4.6c0.4-1.1,0.8-2.2,1.4-3.7
		L221.2,78.1z M215.9,66.7c-0.6-1-1.4-2.4-2.3-3.7l2-1.9c0.9,1.3,1.7,2.6,2.4,3.9L215.9,66.7z M219,83.5l-1.2,2.7l3.7,1.9
		c0.8-1.5,1.3-3,1.7-4.6H219z M241.6,67.9v3.3h-1.9c-0.7,7.2-1.3,10.6-3.1,14.8c1.6,2.6,3.6,4.9,6.1,6.7c-0.9,1.1-1.5,2.3-1.9,3.6
		c-2.2-2.1-4.2-4.5-5.8-7.1c-1.8,2.7-4,5-6.7,6.8c-0.4-1.2-1-2.4-1.7-3.4c2.7-1.6,5-3.8,6.7-6.4c-1.3-2.9-1.9-4.8-2.8-9.6
		c-0.3,1-0.8,2-1.3,3.1c-0.6-1-1.3-2-2.1-2.8c1.4-2.9,2.6-5.9,3.5-9c0.7-2.5,1.4-5.1,1.9-8l3,1.1c-1.2,4.6-1.3,5.1-1.9,7L241.6,67.9
		z M232.2,71.2c0.2,4,1,7.9,2.5,11.5c1.3-3.6,1.6-7,1.9-11.5L232.2,71.2z"/>
</g>
<g id="レイヤー_1_1_">
	<polygon class="st2" points="216.2,175.9 326,175.9 435.8,175.9 435.8,336.1 326,336.1 216.2,336.1 	"/>
	<rect x="226" y="186" class="st3" width="200" height="140"/>
	<rect x="234.2" y="193.9" class="st4" width="183.6" height="124.2"/>
	<path class="st5" d="M434.6,326.7c0.9,0.1,1.8,0.2,2.2-0.2c0.8-1-1.3-4.1-0.6-5.2s4.5-0.5,5-1.6s-2.4-3.6-2-4.9s4.1-1.7,4.3-3
		s-3.3-2.8-3.3-4.1s3.5-2.8,3.3-4.1s-4-1.8-4.3-3s2.5-3.7,2-4.9s-4.3-0.6-5-1.7s1.4-4.3,0.6-5.2s-4.3,0.7-5.3-0.2s0.2-4.5-0.9-5.2
		s-3.9,1.8-5.1,1.3s-1.1-4.4-2.4-4.7s-3.2,2.9-4.5,2.7s-2.3-3.9-3.6-3.9s-2.3,3.7-3.6,3.9s-3.3-3.1-4.5-2.7s-1.2,4.2-2.4,4.7
		s-4-2-5.1-1.3s0,4.3-0.9,5.2s-4.4-0.8-5.3,0.2s1.3,4.1,0.6,5.2s-4.5,0.5-5,1.6s2.4,3.6,2,4.9s-4.1,1.7-4.3,3s3.3,2.8,3.3,4.1
		s-3.5,2.8-3.3,4.1s4,1.8,4.3,3s-2.5,3.7-2,4.9s4.3,0.6,5,1.7s-1.4,4.3-0.6,5.2c0.4,0.4,1.2,0.4,2.2,0.2l-13.2,22.8l13-1.6l5.2,12.1
		l13.8-24c0.3,0.4,0.9,0.5,1.3,0.2c0.1-0.1,0.1-0.1,0.2-0.2l13.8,24l5.1-12.1l13,1.6L434.6,326.7z"/>
	<polygon class="st0" points="400.5,360 395.3,347.9 382.3,349.5 398.4,321.6 416.5,332.1 	"/>
	<polygon class="st0" points="447.7,349.5 434.7,347.9 429.5,360 413.5,332.1 431.6,321.6 	"/>
	<path class="st1" d="M440,307.6c0-1.3,3.9-2.9,3.7-4.1s-4.4-1.7-4.7-2.9s2.9-3.9,2.4-5s-4.7-0.4-5.4-1.5s1.7-4.5,0.9-5.5
		s-4.6,0.9-5.5,0.1s0.4-4.8-0.7-5.5s-4.1,2.2-5.3,1.6s-1-4.7-2.2-5.1s-3.3,3.3-4.6,3.1s-2.3-4.2-3.6-4.2s-2.3,4.1-3.6,4.2
		s-3.4-3.4-4.6-3.1s-1.1,4.5-2.2,5.1s-4.2-2.3-5.3-1.6s0.3,4.7-0.7,5.5s-4.7-1.1-5.5-0.1s1.6,4.4,0.9,5.5s-4.8,0.3-5.4,1.5
		s2.8,3.8,2.4,5s-4.5,1.6-4.7,2.9s3.7,2.8,3.7,4.1s-3.9,2.9-3.7,4.1s4.4,1.7,4.7,2.9s-2.9,3.8-2.4,5s4.7,0.4,5.4,1.5
		s-1.7,4.5-0.9,5.5s4.6-0.9,5.5-0.1s-0.4,4.8,0.7,5.5s4.1-2.2,5.3-1.6s1,4.7,2.2,5.1s3.3-3.3,4.6-3.1s2.3,4.2,3.6,4.2
		s2.3-4.1,3.6-4.2s3.4,3.4,4.6,3.1s1.1-4.5,2.2-5.1s4.2,2.3,5.3,1.6s-0.3-4.7,0.7-5.5s4.7,1.1,5.5,0.1s-1.6-4.4-0.9-5.5
		s4.8-0.3,5.4-1.5s-2.8-3.8-2.4-5s4.5-1.6,4.7-2.9S440,308.9,440,307.6z"/>
	<circle class="st6" cx="415" cy="307.6" r="22.2"/>
	<circle class="st1" cx="415" cy="307.6" r="21"/>
	<g>
		<defs>
			<circle id="SVGID_1_" cx="415" cy="307.6" r="21"/>
		</defs>
		<clipPath id="SVGID_2_">
			<use xlink:href="#SVGID_1_"  style="overflow:visible;"/>
		</clipPath>
		<g class="st7">
			<line class="st8" x1="438" y1="303.6" x2="405.9" y2="328.4"/>
			<line class="st9" x1="440.1" y1="309.4" x2="411.7" y2="332"/>
		</g>
	</g>
	<path class="st0" d="M381.5,218.9c0.2-0.1,0.3-0.2,0.4-0.3c0.1-0.1,0.5-0.3,0.6-0.4l1.2-1.1l1.2-1.1l0.2-0.2l1.1-1.2l0.1-0.2
		l1.1-1.4l0.6-0.8l0.7-1.1c0,0,0.4-0.9,0.4-0.9c0-0.1,0-0.1-0.1-0.2c0-0.1-0.6-0.6-0.7-0.7l0,0h0.4h0.7c0.4,0,0.8,0.2,1.1,0.5
		l0.5,0.4c0.3,0.2,0.4,0.5,0.5,0.9c0,0.1,0,0.4,0,0.4s-0.2,0.4-0.2,0.4c0,0.3,1,1,1.5,1.4l1.3,1l2,1.5c0.2,0.2,0.4,0.3,0.6,0.4l0,0
		l1,0.7c0.5,0.4,1,0.8,1.5,1.2c0,0.2-0.6,0.3-0.9,0.3h-0.6c-0.1,0-0.6,0.1-0.8,0.1c-0.3,0-0.7,0-1,0c-0.4-0.1-0.7-0.3-1-0.6
		l-0.5-0.4l-0.9-0.9l-1.2-1.3c-0.1-0.1-0.2-0.2-0.3-0.3c-0.1-0.1-0.3-0.3-0.4-0.4l-1.1-1.4l-0.4-0.4c-0.6,0.5-1.2,1.2-1.6,1.9
		c0,0.1-0.8,0.8-1,0.9s-0.2,0.3-0.3,0.4s-0.8,0.7-0.9,0.8c0.2,0,1.1-0.1,1.1-0.1l1.3-0.2c0.6-0.1,1.1-0.3,1.7-0.5
		c0.4-0.3,0.5-0.3,0.6-0.3c0.4,0,1.4,0.4,1.5,0.8c0.2,0.1,0.3,0.2,0.3,0.5c0,0,0,0.1,0,0.1c0,0-0.3,0.4-0.4,0.4
		c-0.1,0.1-0.2,0.1-0.3,0.2l-1.5,0.2l-0.2,0.1l-0.6,0.1c-0.4,0.1-0.8,0.2-1.2,0.2c-0.4,0-0.7-0.1-1.1-0.2c-0.2-0.1-0.9-0.4-1-0.5
		s-0.1-0.1-0.3-0.3c-0.1-0.1-0.2-0.2-0.2-0.3l-1.1,0.9c-0.9,0.6-1.9,1-2.9,1.1c-0.2,0-0.4,0-0.6-0.1v-0.1L381.5,218.9z M390.3,224.8
		c-1.5,0-1.5,0.1-1.5,0.2c-0.1,0.4-0.1,0.4-0.3,0.5c-0.2,0.1-0.3,0.2-0.5,0.2c-0.2,0-0.3-0.1-0.5-0.2c-0.2-0.1-0.8-0.7-0.9-0.8
		c0-0.1-0.1-0.1-0.1-0.2l0,0c-0.2-0.4-0.3-0.4-0.2-0.6h0.1l-0.1-0.1l-0.3-1.5c-0.2-0.8-0.7-1.5-1.3-1.9c0-0.1,0-0.1,0-0.2
		c0,0,0-0.1,0.1-0.1l0,0c0.1,0,0.2,0,0.2,0.1c0.1,0,0.8,0.1,0.9,0.1c0.1,0,0.3-0.1,0.4-0.1h0.4l1.5-0.3l1.5-0.2
		c0.1,0,1.4-0.2,1.5-0.2c0.5,0,0.5,0,0.7-0.1s0.3-0.3,0.5-0.3c0.4,0,0.7,0.1,1,0.4c0.2,0.1,1,0.6,1.2,0.7s0.6,0.3,0.7,0.4
		c0.2,0.1,0.4,0.4,0.4,0.6c0,0.5-0.2,0.6-0.8,0.9c-0.3,0.5-0.4,0.6-0.7,1c-0.1,0.2-0.2,0.3-0.2,0.4s0.3,0.6,0.3,0.7
		c0,0.2,0,0.4-0.2,0.6c-0.2,0.1-0.4,0.2-0.6,0.3c-0.2,0-0.4,0-0.6-0.1c-0.1-0.1-0.2-0.1-0.4-0.1L390.3,224.8z M390.8,223.3l0.3-0.1
		c0-0.1,0-0.1,0.1-0.1c0-0.2,0-0.4,0.1-0.5l0.2-1.4c0,0,0-0.1,0-0.1c0,0,0,0,0,0h-0.1c-0.2,0-1,0.1-1.1,0.1
		c-0.3,0.1-0.6,0.1-0.9,0.1c-0.1,0-0.4,0.1-0.5,0.1H388c-0.1,0-0.1,0.1-0.1,0.1s0.2,0.9,0.3,1.1s0.1,0.8,0.2,0.9s0.8-0.1,0.9,0
		L390.8,223.3z"/>
	<path class="st0" d="M381.1,240c0.5-0.3,0.9-0.7,1.3-1.1l0.8-1l1-1.5l0.9-1.3c0.2-0.3,0.3-0.6,0.4-0.9c-0.3,0.1-0.7,0.2-1,0.3
		c-0.6-0.2-1.1-0.4-1.6-0.8c-0.3-0.2-0.5-0.4-0.8-0.6c-0.2-0.1-0.1-0.2-0.1-0.3h1.2c0.3,0,0.5,0,0.8-0.1l1.8-0.5
		c0,0,0.1-0.5,0.1-0.5l-0.1-1.9l-0.1-0.8c-0.3-0.2-0.6-0.5-0.8-0.9c0.1,0,0.1,0,0.2-0.1c0.1,0,0.3-0.1,0.5-0.1
		c0.4-0.1,0.8,0.1,1.1,0.4c0,0,0.3,0.2,0.4,0.2c0.4,0.4,0.8,0.8,1.1,1.2c0,0.1,0,0.2,0,0.3c-0.3,0.5-0.5,1.1-0.5,1.7
		c0,0.1,0,0.1,0,0.2s0.6,0.2,0.6,0.2c0.1,0.1,0.2,0.2,0.3,0.3c0.1,0.1,0.2,0.3,0.3,0.4c0,0.1,0,0.2-0.1,0.4
		c-0.2,0.2-0.2,0.2-0.4,0.2s-0.1,0.1-0.5,0.2c-0.2,0.1-0.3,0.1-0.5,0.2c0,0.2-0.1,0.5-0.1,0.7c0,0.1,0,0.1,0,0.2h0.1
		c0.1,0.1,0.8,0.5,0.9,0.6c0.5,0.6,0.6,0.6,0.6,0.9c0,0,0,0.6,0,0.6c-0.1,0.3-0.3,0.6-0.6,0.6s-0.3-0.1-0.8-0.5l-0.1-0.1
		c0,0.2,0,0.4,0,0.5c0,0.1,0,0.5,0,0.5s0,0.9,0,1.1c0.3-0.2,0.6-0.5,0.9-0.9l0-0.1l1-1.2l0.4-0.6l0.9-1.3l0.6-0.9
		c0-0.1,0-0.1-0.4-0.6c0-0.1-0.2-0.4-0.2-0.4s-0.2,0.1-0.3,0.2l-0.9,0.8c-0.2,0.2-0.5,0.3-0.8,0.4h-0.2l-0.2,0.1
		c-0.1,0-0.2,0-0.2-0.1c0.1-0.1,0.1-0.2,0.4-0.5c0.6-0.7,1-1.5,1.5-2.4c0-0.1,0.3-0.3,0.3-0.4c0.3-0.6,0.6-1.2,0.8-1.9
		c-0.1-0.1-0.3-0.3-0.4-0.4c0-0.1-0.3-0.4-0.3-0.4h0.1c0-0.1-0.1-0.2-0.1-0.2c0,0,0-0.1,0.1-0.1c0.1,0,0.3,0.1,0.4,0.1h0.6
		c0.4,0,0.7,0.1,1,0.4c0.1,0.1,0.8,0.6,0.9,0.8c0,0.1,0.1,0.3,0.1,0.4c0.1,0.1,0.3,0.1,0.4,0.1l0.4-0.2v-0.2c0.1,0,0.2-0.1,0.3-0.1
		c0.1,0,0.2,0,0.3,0.1l0.1,0.1c1,0.6,1.5,0.8,1.5,1.2c0,0.2-0.1,0.3-0.2,0.5c0,0.1-0.5,0.3-0.5,0.3c-0.3,0-0.5,0.2-0.9,0.9
		c-0.3,0.5-0.7,1-1.1,1.4l0,0l0.2,0.2l1,1c0.3,0.3,1.7,1.4,2,1.6l1.2,0.9c0.1,0.1,0.6,0.5,0.7,0.6s0.5,0.6,0.5,0.7
		c0,0.1,0,0.1,0,0.2h-0.1v0.1l-0.3,0.1h-1.4c-0.3,0-0.7-0.1-1-0.1c-0.2-0.1-0.4-0.2-0.6-0.4l0,0c0.3,0.3,0.4,0.7,0.5,1.1
		c0,0.2-0.3,0.4-0.6,0.5c-0.1,0.1-0.1,0.3-0.1,0.4c-0.2,0.2-0.3,0.5-0.3,0.7c0,0.1,0.2,0.5,0.2,0.6c0,0.4-0.6,0.6-0.7,0.6
		s-1.3-0.1-1.5-0.1c-0.2,0-0.3,0.1-0.5,0.1c-0.1,0-0.5,0-0.6,0c-0.2,0.1-0.3,0.1-0.5,0.1c-0.2,0.2-0.3,0.3-0.5,0.4l-0.3,0.1
		c-0.5-0.3-0.9-0.7-1.2-1.1l-0.1-0.4c0-0.1,0.1-0.2,0.1-0.2c0-0.1-0.1-0.7-0.1-0.8c0-0.6-0.1-1.3-0.2-1.9c-0.2,0.1-0.3,0.1-0.5,0.2
		c-0.2,0.1-0.5,0.2-0.7,0.2c-0.2,0-0.3,0-0.5,0v0.1v1.9c0,0.1,0,0.3,0,0.3c0,1.1-0.5,1.7-0.7,1.7c-0.4,0-0.6-0.3-0.9-0.8
		c0,0-0.1-0.1-0.1-0.1c-0.1-0.1-0.2-0.4-0.3-0.5c0-0.1-0.1-0.1-0.1-0.2c0-0.1,0.1-0.4,0.1-0.4c0-0.1,0-0.1,0-0.2l0.2-1.5l0.1-0.6
		v-1.6c-0.2,0.1-0.8,1-1,1.1c-0.5,0.5-1.7,1.6-2.5,1.6c-0.1,0-0.6,0-0.7-0.1c-0.3,0-0.3,0-0.5-0.2L381.1,240z M393.3,236.3
		c-0.3-0.3-0.5-0.6-0.8-0.8c0,0.1-1.1,1.4-1.2,1.5s-1,1-1.1,1.1c0.8-0.1,1.6-0.2,2.4-0.3c0.2,0,0.7,0,0.9-0.3c0,0,0.1-0.1,0.1-0.1
		c0.1,0,0.3,0,0.4,0s0.4,0.2,0.5,0.2s0,0,0-0.1L393.3,236.3z M393.3,239c-0.6,0-1.1,0.1-1.6,0.2c-0.1,0-0.9,0-0.9,0.1l0.2,0.5
		c0,0.1,0.3,1.4,0.3,1.4c0.4-0.1,0.8-0.2,1.1-0.2c0.2,0,0.5,0,0.7-0.1c0.1-0.4,0.1-0.9,0.1-1.3C393.2,239.4,393.3,239.2,393.3,239
		L393.3,239z M393,231.1c-0.1,0-0.2-0.1-0.3-0.1c-0.1,0-0.1-0.1-0.1-0.1c-0.3,0.3-0.6,0.7-0.9,1.1c0.1,0.2,0.3,0.3,0.5,0.5
		C392.2,232.4,393,231.4,393,231.1L393,231.1z"/>
	<path class="st0" d="M381.9,249.5c0.1,0,0.5,0,0.6,0h0.8h0.2l1.6-0.3l1.3-0.2c0.3-0.1,0.7-0.2,1-0.3c0.1,0,1.6,0.2,1.6,0.5
		s0,0.5-0.3,0.7c-0.1,0.1-0.8,0.3-0.9,0.4l-1.5,0.4c-0.5,0.1-2.2,0.5-2.2,0.5c-0.5-0.2-0.9-0.4-1.4-0.7
		C382.6,250.2,382,249.7,381.9,249.5L381.9,249.5z M385.9,255.8l0.8-0.1c0.1,0,0.4-0.2,0.5-0.2h0.3c0,0,0.8,0.4,0.8,0.4
		s0.6,0.5,0.7,0.6c0,0.1,0.1,0.2,0.1,0.3c0,0.3,0,0.3-0.3,0.4s-0.2,0.1-0.3,0.7c-0.1,0.4-0.2,0.8-0.3,1.1c-0.1,0.1-0.2,0.3-0.2,0.5
		c0,0.2,0.5,0.3,0.7,0.3l1.2-0.2h0.4c0.1,0,0.2,0,0.3-0.1c-0.1-0.2-0.2-0.4-0.3-0.7l-0.3-1.6l-0.1-2.2c0-0.8-0.1-1.5-0.4-2.2
		c-0.2-0.1-0.4-0.2-0.6-0.2c-0.2-0.1-0.4-0.2-0.5-0.3l0,0l0.3-0.1c0.2-0.2,0.5-0.3,0.8-0.2c0.3,0,0.7,0.1,0.9,0.3
		c0.1,0.1,0.7,0.3,0.8,0.4s0.4,0.3,0.4,0.5s0,0.4,0,0.5c0,0.1,0,0.1,0,0.2l0.1,1.7v1.6c0,0,0,0.8,0,1c0,0.2,0,0.4-0.1,0.6
		c-0.2,0.4-0.2,0.5-0.2,0.7c0.1,0,0.2,0,0.3,0c0.3,0,0.7,0,1-0.1c0-0.1-0.1-0.6-0.1-0.6v-0.1l-0.2-1.6v-0.1v-2.3v-2v-0.2l0-1.6
		c0-0.3,0-0.6-0.1-0.9c-0.2,0-0.9-0.1-1-0.1c-0.8-0.2-1.6-0.6-2.3-1l-0.1-0.2l0-0.1l0,0c0.1,0.1,0.1,0.1,0.3,0.1h0.1l1.6-0.2
		l0.3-0.1l2.1-0.5c0.3,0,0.7-0.2,0.9-0.4c0.3-0.2,0.6-0.3,1-0.3l0.2,0.1l1.4,0.5c0.2,0.1,0.3,0.2,0.4,0.3c0,0.2,0,0.3,0.1,0.5
		c0,0.2-0.2,0.3-0.3,0.4c-0.2,0.2-0.5,0.3-0.7,0.3l-1.4,0.2c-0.2,0-0.9,0.1-1,0.2c0.1,0.2,0.1,0.2,0.5,0.5c0.2,0.3,0.4,0.6,0.6,0.9
		c0,0.1,0,0.4,0,0.5l-0.1,1.2c0,0.2-0.1,1.1-0.1,1.3c0.4,0.1,0.7-0.1,0.9-0.4c0.1,0,0.3,0,0.4-0.1c0.3,0.1,0.6,0.2,0.9,0.4l0.4,0.2
		c0,0.1,0.3,0.3,0.3,0.4c0,0.3,0,0.7-1.1,1l-1.2,0.1c-0.2,0-0.4,0-0.5,0h-0.3l0,0.1v0.5l-0.1,2.1c0,0.1-0.1,0.5-0.1,0.5
		c-0.1,0.1-0.1,0.3-0.1,0.4c0,0-0.2,0.2-0.2,0.2c0.1,0,0.3,0.1,0.4,0h0.5c0.4,0.1,0.8-0.1,1.1-0.4h0.2v-0.1h0.5
		c0.3,0.2,0.6,0.4,0.8,0.7c0,0.1,0.4,0.3,0.5,0.4c0.1,0.1,0.1,0.2,0.2,0.4c0,0.2,0,0.5-0.1,0.5c-0.3,0.3-0.7,0.4-1.1,0.4
		c-0.1,0-0.2,0-0.3,0l-1.4-0.3l-0.2-0.1l-2.2,0.1c-0.1,0-0.8,0.1-0.9,0.1c-0.6,0-1.2,0.2-1.7,0.5h-0.2c-0.3-0.1-0.5-0.2-0.8-0.4
		l-0.2-0.1c-0.1-0.1-0.2-0.2-0.3-0.3c-0.1-0.1-0.5-0.4-0.8-0.5c-0.1,0.1-0.2,0.1-0.5,0.2c-0.1,0-0.6,0.2-0.7,0.2
		c-0.3,0-0.5,0-0.8,0.1c-0.1,0-0.2,0.1-0.3,0.1c-0.1,0.4-0.3,0.7-0.5,0.9c-0.2,0-0.3-0.1-0.5-0.2c-0.1,0-0.5-0.4-0.5-0.5
		c0-0.1,0-0.3-0.1-0.4c-0.2-0.3-0.3-0.7-0.4-1l-0.2-1.5c-0.1-0.7-0.1-0.7-0.5-0.9c-0.3-0.1-0.5-0.2-0.8-0.3c-0.1,0-0.1,0-0.1-0.1
		c0.2,0,0.9-0.1,1-0.1s0.3,0.1,0.4,0.1L385.9,255.8z M385.9,253.8c0.5-0.1,0.6-0.1,0.8-0.4c0.4,0,0.8,0.2,1.1,0.3
		c0.1,0.1,0.2,0.2,0.2,0.4c0,0.3-0.6,0.6-0.8,0.7s-1.6,0.4-1.8,0.4c-0.3,0-0.6-0.1-0.9-0.2l-0.3-0.1c-0.2-0.1-0.4-0.2-0.5-0.2
		c-0.1-0.1-0.3-0.3-0.5-0.4c0.2-0.1,1.2-0.1,1.4-0.1L385.9,253.8z M383.4,251.9c0.1,0,0.6,0.1,0.7,0.1c0.6-0.1,1.3-0.3,1.9-0.6
		c0.2,0,0.4,0,0.6-0.1v-0.2c0.1,0,1.7,0.1,1.7,0.7c0,0.3-0.2,0.4-0.4,0.6c-0.1,0.1-0.1,0.1-0.2,0.2c-0.1,0.1-2.4,0.6-2.5,0.6
		c-0.3-0.1-0.5-0.2-0.8-0.3C384,252.7,383.7,252.4,383.4,251.9L383.4,251.9z M384.2,245.6c0.1,0,0.2,0,0.3,0.1
		c0.3,0,0.6,0.1,0.9,0.3c0.2,0.1,0.4,0.1,0.6,0.1c0.4,0,0.8-0.1,1.2-0.1c0.2,0.1,1.2,0.5,1.3,0.7c0.1,0.2,0.1,0.5,0.1,0.7
		c0,0.1-0.1,0.3-0.2,0.4c0,0.3-0.6,0.5-0.8,0.5c-1,0.1-2.1-0.3-2.8-1.1c-0.4-0.5-0.7-1-0.9-1.6C384,245.6,384.1,245.6,384.2,245.6
		L384.2,245.6z M386.3,259c0.2-0.6,0.3-1.3,0.4-1.9c0-0.1,0-0.2-0.1-0.2s-0.8,0.1-1,0.1s-0.4,0.2-0.4,0.2s-0.2,0-0.2,0.2
		s0.3,1,0.3,1.2c0.1,0.5,0.1,0.6,0.2,0.6C385.8,259.2,386.1,259.1,386.3,259z"/>
	<path class="st0" d="M381.5,268.1c0.2-0.1,0.2-0.1,0.6-0.1c0,0,0.2,0.1,0.3,0.1l0.6-0.1l2.3-0.2l0.3,0l1.8-0.2l1.2-0.1
		c0.4,0,0.4,0,0.4-0.3c0-0.1,0-0.1,0-0.3h-0.2c-0.1,0-0.4,0.1-0.6,0.1s-0.7,0-0.8,0s-1,0.2-1.1,0.2c-0.4-0.1-0.8-0.3-1-0.6l0,0
		c-0.4-0.4-0.4-0.4-0.5-0.5c0-0.1-0.1-0.3-0.2-0.4v-0.1c0.1,0,0.6,0.1,0.7,0.2c0.4,0.1,0.8,0.1,1.2,0.1l1.6-0.1c0.1,0,0.5,0,0.8-0.1
		c0,0,0.1,0,0.1-0.1c0-0.1,0-0.8,0-0.8c0-0.5,0-0.7-0.2-0.9c-0.1-0.1-0.5-0.3-0.6-0.4c-0.1-0.2-0.2-0.4-0.2-0.6
		c0.2,0,1.3,0.1,1.4,0.1c0.2,0.2,0.5,0.3,0.8,0.3c0.3,0.1,0.5,0.2,0.8,0.3c0.1,0,0.4,0.3,0.5,0.3s0.4,0.4,0.4,0.5
		c0.1,0.1,0.1,0.2,0.1,0.3c0,0.1-0.2,0.4-0.2,0.5c0,0.1,0,0.2,0,0.3v0l1.8,0h0.2l0,0c0-0.1,0.1-0.2,0.3-0.4c0.1,0,0.3,0,0.4-0.1
		c0.6,0.2,1.2,0.5,1.8,0.8c0,0,0.4,0.4,0.4,0.6c0,0.2-0.1,0.4-0.2,0.5c0,0.1,0.1,0.1,0.3,0.1c0.2,0,0.4,0,0.6-0.1v-0.1
		c0.5,0.1,1.1,0.2,1.5,0.4l0.4,0.4c0,0.1,0,0.1,0,0.2c0,0.3,0,0.5-0.2,0.7c-0.2,0.1-0.5,0.1-0.7,0.1c-0.2,0-0.5,0-0.7-0.1l-1.4-0.3
		h-0.2c-0.1,0-0.1,0-0.2,0.2c0,0-0.6,0.6-0.6,0.8s0.1,0.4,0.1,0.4s-0.3,0.4-0.4,0.4c-0.3,0-1.6-0.4-1.9-0.4c-0.5,0-1.3,0-1.5,0
		s-0.2,0.5-0.2,0.6s0.1,0.2,0.2,0.2c0.5,0,0.9,0,1.4-0.1c0.1-0.1,0.3-0.2,0.5-0.3c0,0,1.2,0.2,1.4,0.3s0.5,0.3,0.5,0.6
		c0,0.5-0.7,0.7-1.2,0.7c-0.2,0-1.2-0.1-1.4-0.1c-0.4,0-0.9,0.1-1.3,0.1c0,0.1-0.2,0.5-0.2,0.6s0,0.1,0.1,0.1h0c0.4,0,0.8-0.1,1.2,0
		h1.9c0.2,0,0.3,0,0.5-0.2c0-0.1,0.1-0.2,0.2-0.2c0.6,0.1,1.2,0.4,1.7,0.7c0.2,0.2,0.4,0.4,0.6,0.6c0,0.1,0,0.2,0,0.3
		c0,0.2-0.1,0.3-0.2,0.4c-0.2,0.1-0.5,0.1-0.8,0.1c-0.2,0-0.4,0-0.5-0.1c-0.2-0.1-0.4-0.1-0.6-0.2l-1.5-0.2l-1.6-0.1
		c-0.2,0-0.5,0-0.7,0l-1.5,0.1c-0.8,0.1-2.4,0.3-2.7,0.4c-0.5,0.1-0.6,0.1-1,0.2c-0.1,0-0.6,0.2-0.7,0.2s-1.2-0.5-1.3-0.5
		s-0.4-0.5-0.5-0.5l-0.2-0.3v0l0.4-0.1l0.3,0h0.7l1.6-0.3c0.1,0,1.7-0.2,1.8-0.2c0.3,0,0.6,0,0.9-0.1v-0.1c0,0,0-0.1,0-0.2
		c0-0.1,0-0.2,0-0.4h-0.3c-0.1,0-1.5,0.3-1.5,0.3l-0.3,0.1c-0.4-0.1-0.8-0.3-1.1-0.6c-0.2-0.2-0.4-0.4-0.6-0.6
		c0.1-0.2,0.2-0.2,1.1-0.2l2.6-0.2c0-0.1,0.1-0.2,0.1-0.3c0-0.1,0-0.3-0.1-0.3s-1.4,0.2-1.5,0.2c-0.7-0.1-1.4-0.4-1.9-0.9l0,0
		l0.4-0.1l3.1-0.3h0c0-0.1,0-0.3,0-0.3c0-0.1,0-0.2-0.1-0.2h-0.6l-1.6,0.2h-0.4l-1.2,0.4c-0.4,0.1-0.4,0.1-0.8,0.5
		c-0.1,0.1-0.2,0.1-0.3,0.1c-0.2-0.1-0.6-0.3-0.9-0.4s-0.9-0.7-1.2-0.9l-0.5-0.4L381.5,268.1z M384.4,275.1c0.6-0.1,1.2-0.2,1.8-0.2
		c0.5,0,2.8-0.5,3.2-0.5l1.6-0.1l1.4,0c0.4-0.2,0.5-0.2,0.5-0.2l0.4,0.1h0.3c0.3,0.1,2,1.2,2,1.8c0,0.1-0.1,0.2-0.1,0.2
		c-0.4,0.2-0.5,0.2-0.5,0.5c0,0-0.1,0.1-0.1,0.2c0,0.1-0.1,0.7-0.1,0.8s-0.1,0.1-0.1,0.4c0,0.5-0.8,2.1-1.6,2.1
		c-0.5-0.1-0.9-0.4-1.2-0.8c0,0-0.1,0-0.1,0l-0.9,0.1c-0.2,0-0.4,0-0.6,0c-0.1,0-0.2,0-0.3,0l-1.6,0.1c-0.2,0-0.4,0.1-0.6,0.2
		l-0.5-0.1c-0.9-0.1-1.5-0.7-1.7-1.6c0-0.2,0-0.5-0.1-0.7c0-0.1-0.1-0.1-0.1-0.2l-0.1-1.2c-0.1-0.2-0.2-0.4-0.4-0.5
		C384.7,275.3,384.6,275.3,384.4,275.1L384.4,275.1z M389.5,275.7c-0.2,0-1.6,0.2-1.7,0.3s-0.2,0-0.2,0.1s0,0.5,0.3,0.5
		s0.7-0.1,0.9-0.2l1.4-0.2c0.1,0,0.3-0.2,0.4-0.2s0.5,0.1,0.6,0.1c0.4,0,0.8,0,1.1,0.2c0.1,0,0.1,0.1,0.2,0.1c0-0.2,0-0.5,0-0.7
		c0-0.1,0-0.1,0-0.2c-0.5,0-1,0-1.5,0.1L389.5,275.7z M391.2,278.1c0.3,0,0.6,0,0.8,0c0.1-0.3,0.2-0.6,0.2-0.9c0,0-0.1-0.1-0.1,0
		c-0.1,0-1,0.1-1.1,0.1s-0.5,0.1-0.6,0.1s-2.1,0.2-2.2,0.2c-0.3,0-0.4,0-0.4,0.1s0,0.8,0.2,0.8c0.5,0,1-0.1,1.5-0.2L391.2,278.1z
		 M391.3,268.2c-0.1,0-0.1,0.2-0.1,0.3s0,0.3,0,0.3s0.1,0.1,0.4,0.1s1.1-0.1,1.1-0.1c0.1-0.2,0.2-0.4,0.3-0.6c0,0,0-0.1,0-0.1
		L391.3,268.2z M392.9,266.4l-1.6,0.2c0,0.1-0.1,0.6,0.1,0.6h0.1l1.5-0.1c0.1-0.2,0.1-0.4,0.1-0.7H392.9z"/>
	<line class="st10" x1="361.3" y1="213" x2="361" y2="271.6"/>
	<line class="st10" x1="337.6" y1="213" x2="337.2" y2="301.9"/>
	<line class="st10" x1="313.9" y1="213" x2="313.5" y2="291.4"/>
	<line class="st10" x1="290.2" y1="213" x2="289.9" y2="301.9"/>
	<line class="st10" x1="266.5" y1="213" x2="266.1" y2="278.8"/>
</g>
</svg>
