<?xml version="1.0" encoding="utf-8"?>
<!-- Generator: Adobe Illustrator 25.2.3, SVG Export Plug-In . SVG Version: 6.00 Build 0)  -->
<svg version="1.1" id="レイヤー_1" xmlns="http://www.w3.org/2000/svg" xmlns:xlink="http://www.w3.org/1999/xlink" x="0px"
	 y="0px" viewBox="0 0 465 373" style="enable-background:new 0 0 465 373;" xml:space="preserve">
<style type="text/css">
	.st0{fill:#F49800;}
	.st1{fill:#212A34;}
	.st2{fill:#FFFFFF;}
	.st3{fill:#333333;}
</style>
<g id="レイヤー_1_1_">
	<path class="st0" d="M279.6,207.6l-94.9,79.6c-44-52.4-37.1-130.5,15.2-174.4c23.1-19.3,49.5-29,79.6-29L279.6,207.6z"/>
	<path class="st1" d="M279.6,207.6V83.8c68.4,0,123.8,55.4,123.8,123.8S348,331.4,279.6,331.4c-38.3,0-70.2-14.9-94.9-44.2
		L279.6,207.6z"/>
	<circle class="st2" cx="279.5" cy="207.5" r="79.9"/>
</g>
<g id="文字">
	<path class="st0" d="M233.9,247c1.1,0.9,2.5,1.4,3.9,1.5c1.9,0,3.5-1.5,3.6-3.4c0-0.1,0-0.3,0-0.4c0.1-2.1-1.4-3.9-3.5-4
		c-0.2,0-0.4,0-0.5,0h-1.5v-2.9h1.5c1.8,0.1,3.3-1.3,3.4-3.1c0-0.1,0-0.1,0-0.2c0.2-1.5-0.9-2.8-2.3-3c-0.2,0-0.3,0-0.5,0
		c-1.3,0.1-2.6,0.6-3.6,1.5l-0.7-2.8c1.3-1.2,3-1.8,4.8-1.8c3.4,0,5.1,2.6,5.1,5.5c0.1,2.2-1.1,4.3-3.1,5.3v0.1
		c2.1,0.5,3.7,2.6,3.7,5.6c0,3.8-2.3,6.8-6.4,6.8c-1.7,0-3.4-0.6-4.7-1.7L233.9,247z"/>
	<path class="st0" d="M257.3,231.6c-0.6,0-1.1,0-1.7,0.1c-3.6,0.6-5.4,3.6-5.8,7h0.1c0.8-1.5,2.3-2.4,4-2.4c3,0,5.2,2.8,5.2,7.4
		c0,4.3-2.3,8-5.9,8c-3.9,0-6.3-4-6.3-9.7c0-4.3,1.2-7.9,2.9-10.1c1.4-1.9,3.5-3.1,5.9-3.3c0.5-0.1,1.1-0.1,1.6-0.1L257.3,231.6z
		 M253.2,248.7c1.8,0,3-2.1,3-4.8s-1.2-4.7-3.2-4.7c-1.4,0.2-2.6,1.2-3,2.6c-0.2,0.4-0.2,0.8-0.2,1.3
		C249.8,246.1,250.9,248.7,253.2,248.7L253.2,248.7z"/>
	<path class="st0" d="M262.6,233.3c1.3,0,2.1,1.2,2.1,3.3c0,2.4-1,3.6-2.2,3.6s-2.1-1.1-2.2-3.4S261.4,233.3,262.6,233.3
		L262.6,233.3z M262.6,234.4c-0.7,0-1.1,1-1.1,2.3s0.4,2.3,1.1,2.3s1.1-0.9,1.1-2.4S263.4,234.4,262.6,234.4L262.6,234.4z
		 M262.7,244.9l4.9-11.6h0.8l-4.9,11.6H262.7z M268.5,237.9c1.3,0,2.1,1.2,2.1,3.3c0,2.4-1,3.6-2.2,3.6s-2.1-1.1-2.2-3.4
		S267.3,237.9,268.5,237.9L268.5,237.9z M268.5,239.1c-0.7,0-1.1,1-1.1,2.3s0.4,2.3,1.1,2.3s1.1-0.9,1.1-2.4
		S269.3,239.1,268.5,239.1L268.5,239.1z"/>
	<path class="st1" d="M313.9,231.6c-0.6,0-1.1,0-1.7,0.1c-3.6,0.6-5.4,3.6-5.8,7h0.1c0.8-1.4,2.3-2.4,4-2.4c3,0,5.2,2.8,5.2,7.4
		c0,4.2-2.3,8-5.9,8c-4,0-6.3-4-6.3-9.7c0-4.3,1.2-7.9,2.9-10.1c1.4-1.9,3.5-3.1,5.9-3.3c0.5-0.1,1.1-0.1,1.6-0.1L313.9,231.6z
		 M309.8,248.8c1.8,0,3-2.1,3-4.8s-1.2-4.7-3.2-4.7c-1.4,0.2-2.6,1.2-3,2.6c-0.2,0.4-0.2,0.8-0.2,1.3
		C306.4,246.1,307.5,248.8,309.8,248.8L309.8,248.8z"/>
	<path class="st1" d="M324.8,251.4v-5.8h-7.8V243l7.1-14.1h3.4v13.7h2.2v3h-2.2v5.8L324.8,251.4z M324.8,242.5v-6.8
		c0-1.2,0-2.4,0.1-3.7h-0.1c-0.5,1.3-0.9,2.4-1.4,3.6l-3.6,6.9v0.1L324.8,242.5z"/>
	<path class="st1" d="M333.2,233.3c1.3,0,2.1,1.2,2.1,3.3c0,2.4-1,3.6-2.2,3.6s-2.1-1.1-2.2-3.4S331.9,233.3,333.2,233.3
		L333.2,233.3z M333.1,234.5c-0.7,0-1.1,1-1.1,2.3s0.4,2.3,1.1,2.3s1.1-0.9,1.1-2.4S333.9,234.5,333.1,234.5L333.1,234.5z
		 M333.2,245l4.9-11.6h0.8L334,245L333.2,245z M339.1,238c1.3,0,2.1,1.2,2.1,3.3c0,2.4-1,3.6-2.2,3.6s-2.1-1.1-2.2-3.4
		S337.8,238,339.1,238L339.1,238z M339,239.1c-0.7,0-1.1,1-1.1,2.3s0.4,2.3,1.1,2.3s1.1-0.9,1.1-2.4S339.8,239.1,339,239.1
		L339,239.1z"/>
</g>
<g id="icons">
	<path class="st0" d="M243.6,163.1c0-2.5,2-4.6,4.5-4.6c2.5,0,4.6,2,4.6,4.5c0,2.5-2,4.6-4.5,4.6c0,0,0,0,0,0
		C245.6,167.6,243.6,165.6,243.6,163.1z M241.3,194.9h-1.7c-0.8,0-1.5-0.7-1.5-1.5c0-0.2,0-0.3,0.1-0.5l3.6-10.9l-3.2,5.3
		c-0.9,1.4-2.7,1.9-4.2,1s-1.9-2.7-1-4.2l0,0l5.1-8.4c1.9-3.2,5.4-5.1,9.1-5.1h1.1c3.7,0,7.2,1.9,9.1,5.1l5.1,8.4
		c0.9,1.4,0.4,3.3-1,4.2s-3.3,0.4-4.2-1l-3.2-5.3l3.5,10.9c0.3,0.7-0.1,1.6-0.8,1.9c-0.2,0.1-0.4,0.1-0.6,0.1H255v9.1
		c0,1.7-1.4,3-3,3s-3-1.4-3-3v-9.1h-1.5v9.1c0,1.7-1.4,3-3,3s-3-1.4-3-3L241.3,194.9z"/>
	<path class="st1" d="M321.9,162.6c0,2.5-2,4.5-4.5,4.5c-2.5,0-4.5-2-4.5-4.5c0-2.5,2-4.5,4.5-4.5
		C319.9,158.1,321.9,160.1,321.9,162.6z M316.6,191.4v12.1c0,1.7-1.4,3-3,3s-3-1.4-3-3v-21.1l-2.7,4.5c-0.9,1.4-2.7,1.9-4.2,1
		s-1.9-2.7-1-4.2l5.5-9.2c1.6-2.7,4.6-4.4,7.8-4.4h2.8c3.2,0,6.1,1.7,7.8,4.4l5.5,9.2c0.9,1.4,0.4,3.3-1,4.2s-3.3,0.4-4.2-1
		l-2.7-4.5v21.1c0,1.7-1.4,3-3,3s-3-1.4-3-3v-12.1L316.6,191.4z"/>
	<path class="st3" d="M88.3,43.6v16.8H77.6c0,1.1-0.2,2.4-0.3,3.3h12.4c-0.1,2-0.6,10.1-1.5,12c-0.2,0.6-0.7,1-1.2,1.2
		c-1.6,0.5-3.3,0.9-5,1c-0.2-1.2-0.6-2.5-1.2-3.6h3.8c0.4,0.1,0.9-0.2,1-0.6c0.4-2.2,0.6-4.5,0.7-6.8h-9.7
		c-1.1,2.7-3.6,8.8-13.1,11.2c-0.3-1.2-0.9-2.3-1.6-3.3c2-0.4,9.3-1.6,11.4-7.8h-9.9v-3.2h11c0.2-1.1,0.3-2.2,0.3-3.3h-9.2V43.6
		H88.3z M68.5,46.8v3.8h6.8v-3.8H68.5z M68.5,53.4v3.9h6.8v-3.9H68.5z M78,46.8v3.8h7.2v-3.8H78z M78,53.4v3.9h7.2v-3.9H78z"/>
	<path class="st3" d="M123.4,50.8v3.4H118c-0.5,4.7-1.8,9.3-4,13.5c3,1.9,5.8,4.1,8.5,6.4l-1.9,3.3c-2.7-2.5-5.7-4.9-8.8-6.9
		c-4,3.8-9,6.3-14.4,7.2c0-1.3-0.5-2.5-1.2-3.5c6.3-1,10.1-3,12.8-5.5c-2.1-1.2-3.8-2.1-5.8-3l-1,2.5L99,66.6
		c2-4.6,3.1-7.7,4.8-12.4h-8v-3.4h9.1c0.8-2.6,1.4-4.5,2.4-8.4l3.2,1.4c-0.6,2.2-1.3,4.6-2,7L123.4,50.8z M107.3,54.2
		c-1.9,5.5-2.1,6-3,8.4c2.4,1,4.7,2.2,6.9,3.5c2.1-3.6,3.3-7.7,3.5-11.9L107.3,54.2z"/>
	<path class="st3" d="M134.8,43v10.8h7.8v3.4h-7.8V72c2.7-0.6,5.4-1.3,8-2.2v3.4c-2.6,0.8-3.9,1.2-5,1.5c-1.4,0.4-7.8,2.3-9.1,2.6
		l-0.9-3.7c1.3-0.2,3-0.6,4.1-0.9V43H134.8z M147.8,42.9v11.5c2.7-1.1,5.2-2.5,7.6-4.1l1.8,3.2c-3,1.8-6.1,3.3-9.3,4.5V73
		c-0.1,0.5,0.2,0.9,0.7,1c0.1,0,0.2,0,0.2,0h3c1.9,0,2.3,0,2.6-0.2c0.6-0.5,0.9-3.4,1-4.4c1,0.5,2,0.9,3.1,1.2
		c-0.9,5.4-1.7,6.7-4.5,6.7h-5.1c-1.9,0-4-0.1-4-3V42.9L147.8,42.9z"/>
</g>
<g id="レイヤー_4">
	<rect x="278" y="83" class="st2" width="4" height="47"/>
	
		<rect x="178.5" y="271.5" transform="matrix(0.7677 -0.6408 0.6408 0.7677 -128.3372 192.9624)" class="st2" width="47" height="4"/>
</g>
</svg>
