<?xml version="1.0" encoding="utf-8"?>
<!-- Generator: Adobe Illustrator 25.2.3, SVG Export Plug-In . SVG Version: 6.00 Build 0)  -->
<svg version="1.1" id="文字" xmlns="http://www.w3.org/2000/svg" xmlns:xlink="http://www.w3.org/1999/xlink" x="0px" y="0px"
	 viewBox="0 0 465 373" style="enable-background:new 0 0 465 373;" xml:space="preserve">
<style type="text/css">
	.st0{fill:#303030;}
	.st1{fill:#F49800;}
	.st2{fill:#2C2C2C;}
</style>
<path class="st0" d="M73.4,79.5l2.5-1c0.8,2,1.5,4,2.1,6l-2.5,1.2l-0.4-1.5c-0.6,0.1-1.4,0.2-2.1,0.3v15.6h-2.8V84.9
	c-1.5,0.3-3.2,0.5-4.6,0.8l-0.3-3.3l2.7-0.2c0.6-1.3,1.2-2.8,1.9-4.4c-1.5-1.5-3-2.8-4.7-4l1.2-3l1.3,0.9c0.8-2.4,1.8-5.2,2.6-7.7
	l2.6,1.8c-0.7,1.8-2.1,5.2-3.1,7.6l1.6,1.3c0.8-1.8,1.8-4.2,2.6-6.2l2.7,1.9c-0.9,1.9-5,10-5.7,11.6c1.1-0.1,2.3-0.2,3.4-0.4
	L73.4,79.5z M69.3,88.3c-0.3,3.1-0.8,6.2-1.5,9.2c-1-0.3-1.8-0.6-2.7-0.9c0.8-2.9,1.3-5.9,1.6-8.9L69.3,88.3z M74.8,94.1
	c-0.4-2-0.7-4-0.9-6.1l2.5-0.4c0.2,2,0.5,4,0.9,6L74.8,94.1z M94.3,79v3.2h-5.2c0.6,10.3,2.3,13.6,2.7,13.6s0.8-2.2,1-3.3
	c0.7,0.8,1.5,1.5,2.4,2c-0.6,2.7-1.3,6-2.7,6c-0.9,0-2.3-1.3-3.2-3c-2.2-4.6-2.6-11.1-2.9-15.2h-4.8V95c1.4-0.4,3.5-1,5.3-1.6v3.3
	c-4,1.5-8.6,2.9-10.6,3.5l-0.9-3.7c1.2-0.2,2.4-0.5,3.5-0.8V67.6l1.8,0.5c3.7-1,7.4-2.2,10.9-3.8l1.5,3.3c-1.4,0.6-2.7,1-4,1.3
	C89,72,89,75.6,89,79H94.3z M81.6,79h4.6v-9.2c-1.5,0.3-3,0.7-4.6,1V79z"/>
<path class="st1" d="M110.9,97.2c5.7-1.2,8-4.7,8-9.6c0-5.2-2.4-8-6.6-8.4c-1.3,9.8-4,15.4-5.3,17.2c-0.4,0.6-1.1,1-1.9,1.1
	c-2.3,0-4-4.1-4-8.3c0-7.1,4.6-12.2,10.9-12.2c2.7,0,5.3,1.2,7.2,3.3c1.5,2.1,2.3,4.7,2.2,7.3c0,8.6-5.7,11.2-9.5,12.3
	C111.7,98.9,111.4,98,110.9,97.2z M103.2,89c0,3,0.9,5.3,2,5.3c0.8,0,1.6-2.1,2-3.2c1.4-3.8,2.4-7.8,2.8-11.8
	C106.4,80.2,103.2,83.5,103.2,89z"/>
<path class="st0" d="M135.6,74.6h3v3.1h-3v2.9c1,1.1,2.2,2.2,3.5,3.1c-0.6,1.4-1,2.1-1.4,3.3c-0.6-0.5-1.4-1.1-2-1.8v15.4h-2.8V87.2
	c-0.7,2.1-1.5,4.1-2.4,6c-0.4-1.2-1-2.3-1.6-3.3c2-3.9,3.4-8,4.1-12.2H129v-3.1h3.7v-4.9c-0.8,0.3-1.6,0.6-2.4,0.8
	c-0.3-1.1-0.8-2.2-1.3-3.2c3-0.6,5.9-1.6,8.5-3.2l1.5,3.2c-1,0.4-2.6,1.1-3.4,1.5L135.6,74.6z M149.4,71.4h8v3h-8v2.1h6.5v12.4h-6.5
	v2.4h7.2V94h-7.2v2.1h8.3v3.3h-19.9v-3.3h8.8V94h-7.4v-2.8h7.4v-2.4h-6.3V76.4h6.3v-2.1h-7.5v-3h7.5v-2c-1.9,0.3-3.8,0.4-5.7,0.5
	c-0.2-1.1-0.5-2.1-1-3.1c1.7,0,3.4-0.1,5.1-0.3c3.2-0.3,6.3-0.9,9.4-1.8l1.5,3.2c-2.5,0.5-4.7,0.9-6.5,1.2L149.4,71.4z M143,79.1
	v2.4h3.6v-2.4H143z M143,83.8v2.4h3.6v-2.4H143z M149.4,79.1v2.4h3.6v-2.4H149.4z M149.4,83.8v2.4h3.6v-2.4H149.4z"/>
<path class="st0" d="M174.2,64.6v6.8h5.3v3h-5.3v0.8c1.5,1.6,3.4,2.8,5.4,3.6c-0.6,1-1.2,2.1-1.6,3.2c-1.3-0.8-2.6-1.7-3.8-2.6v3.4
	h-2.7V78c-1.5,1.9-3.2,3.6-5,5.2c-0.5-1.1-1.1-2.1-1.8-3c2.1-1.7,4.1-3.6,5.9-5.7h-4.7v-3h5.7v-6.8L174.2,64.6z M174,83.8v2.6h5.4
	v3.2h-5.8l-0.2,0.7c1.9,1.5,3.6,3.2,5.3,4.9l-1.6,2.8c-1.5-1.6-3.1-3.2-4.8-4.7c-1.2,2.6-3,4.9-5.3,6.6c-0.5-1.1-1.2-2.1-2-3
	c2.7-1.7,4.6-4.3,5.4-7.4h-4.8v-3.2h5.4v-2.6H174z M168.1,65.3c0.9,1.3,1.8,2.6,2.5,3.8l-1.9,1.9c-0.6-1.1-1.5-2.6-2.3-3.9
	L168.1,65.3z M179.1,67.6c-0.8,1.2-1.7,2.5-2.5,3.6c-0.6-0.7-1.2-1.4-1.8-2c0.7-1.1,1.5-2.3,2.4-3.6L179.1,67.6z M185.7,95.6
	c-1.7,1.9-3.7,3.6-5.8,5c-0.5-1-1-1.9-1.6-2.8c2-1.4,3.8-3,5.4-4.7L185.7,95.6z M193.8,65.8V69h-5.6c-0.1,1.4-0.3,2.8-0.5,4.1h4.9
	v19.5h-11.1V73.1h3.6c0.1-1.2,0.2-2.7,0.3-4.1h-5.1v-3.2L193.8,65.8z M184.2,76.1v2.8h5.6v-2.8L184.2,76.1z M184.2,81.3v3h5.6v-3
	H184.2z M184.2,86.9v2.7h5.6V87L184.2,86.9z M189.9,93.2c1.4,1.7,2.9,3.3,4.6,4.6c-0.7,0.9-1.2,1.9-1.6,2.9
	c-1.7-1.6-3.4-3.3-4.8-5.1L189.9,93.2z"/>
<path class="st1" d="M104.1,208.4v-7.3l6.7-7.3c15-16.8,21.2-24.7,21.2-33.9c0-6.6-2.7-12.7-11-12.7c-5.3,0-9.8,3.3-12.8,6.3
	l-3.1-8.6c4.7-4.8,11.1-7.6,17.9-7.6c12.7,0,18.8,10.1,18.8,21.1c0,12.5-7.3,22-18.7,34.6l-4.9,5.2v0.2h25v10L104.1,208.4z"/>
<path class="st1" d="M149,173.7c0-22.2,8.2-36.3,21.2-36.3c13.6,0,20.6,14.2,20.6,35.5c0,22.4-7.2,36.8-21.2,36.8h-0.2
	C156.8,209.6,149.1,195.7,149,173.7z M180.8,173.2c0-16.7-3.5-26.6-11-26.6c-6.6,0-11,9.7-11,26.6c-0.2,17.5,4.2,27.2,10.9,27.2h0.1
	C177.1,200.4,180.8,190.4,180.8,173.2L180.8,173.2z"/>
<path class="st1" d="M200.3,199.8c2.1,0.2,4.2,0.1,6.2-0.2c4.8-0.4,9.2-2.5,12.5-6c3.9-3.9,6.5-9.4,7.5-16.3h-0.2
	c-3,4.4-8.1,7-13.5,6.9c-10.4,0-17.8-9.2-17.8-21.6c0-13.5,8.6-25.1,20.9-25.1c13.1,0,20.6,12.4,20.6,30c0,15.1-4.1,25.8-10.1,32.5
	c-5,5.5-11.9,8.9-19.4,9.4c-2.3,0.4-4.6,0.5-6.9,0.3L200.3,199.8z M215.4,146.6c-6.2,0-10.5,6.7-10.5,15.2c0,7.4,3.9,13.3,10.4,13.3
	c4.5,0,8.7-2.5,10.7-6.6c0.4-1,0.7-2.1,0.7-3.2c0-9.8-3.2-18.7-11.1-18.7L215.4,146.6z"/>
<path class="st0" d="M252.1,184.5h2.7v2.8h-2.7v2.6c0.9,1,2,2,3.1,2.8c-0.5,1.2-0.9,1.9-1.3,3c-0.5-0.4-1.2-1-1.8-1.6v13.8h-2.5v-12
	c-0.6,1.9-1.3,3.7-2.2,5.4c-0.4-1.1-0.8-2.1-1.5-3c1.8-3.5,3-7.2,3.7-11h-3.4v-2.8h3.3v-4.4c-0.7,0.3-1.4,0.5-2.2,0.7
	c-0.3-1-0.7-2-1.2-2.9c2.7-0.5,5.3-1.5,7.7-2.9l1.4,2.8c-0.9,0.4-2.3,1-3.1,1.3V184.5z M264.5,181.6h7.2v2.7h-7.2v1.9h5.8v11.1h-5.8
	v2.1h6.5v2.5h-6.5v1.9h7.5v2.9h-17.8v-2.9h7.8v-1.9h-6.6v-2.5h6.6v-2.1h-5.7v-11.1h5.7v-1.9h-6.7v-2.7h6.7v-1.8
	c-1.7,0.2-3.4,0.4-5.1,0.5c-0.2-1-0.5-1.9-0.9-2.8c1.5,0,3.1-0.1,4.6-0.2c2.9-0.2,5.7-0.8,8.4-1.6l1.4,2.9c-2.2,0.5-4.2,0.8-5.8,1
	V181.6z M258.8,188.6v2.1h3.2v-2.1H258.8z M258.8,192.8v2.2h3.2v-2.2H258.8z M264.5,188.6v2.1h3.2v-2.1H264.5z M264.5,192.8v2.2h3.2
	v-2.2H264.5z"/>
<path class="st0" d="M282.9,175.6v6.1h4.8v2.7h-4.8v0.8c1.4,1.4,3,2.5,4.8,3.3c-0.6,0.9-1.1,1.8-1.5,2.8c-1.2-0.7-2.3-1.5-3.4-2.4v3
	h-2.5v-4.4c-1.4,1.7-2.9,3.2-4.5,4.6c-0.4-0.9-1-1.8-1.6-2.6c1.9-1.5,3.6-3.2,5.2-5.1h-4.2v-2.7h5.1v-6.1L282.9,175.6z M282.8,192.8
	v2.4h4.8v2.9h-5.1l-0.1,0.6c1.7,1.4,3.2,2.8,4.8,4.4l-1.4,2.6c-1.3-1.5-2.8-2.9-4.3-4.2c-1.1,2.3-2.7,4.4-4.8,5.9
	c-0.4-1-1-1.9-1.8-2.7c2.4-1.5,4.1-3.9,4.8-6.6h-4.3v-2.8h4.8v-2.4L282.8,192.8z M277.5,176.2c0.8,1.1,1.6,2.4,2.3,3.4l-1.8,1.7
	c-0.6-1-1.4-2.3-2.1-3.5L277.5,176.2z M287.4,178.2c-0.7,1.1-1.5,2.2-2.2,3.3c-0.5-0.6-1.1-1.2-1.6-1.8c0.6-1,1.4-2.1,2.1-3.3
	L287.4,178.2z M293.2,203.3c-1.5,1.7-3.3,3.2-5.2,4.5c-0.4-0.9-0.9-1.7-1.4-2.5c1.8-1.2,3.4-2.6,4.8-4.2L293.2,203.3z M300.5,176.6
	v2.9h-5c-0.1,1.2-0.3,2.5-0.4,3.7h4.4v17.5h-9.9v-17.5h3.2c0.1-1.1,0.2-2.4,0.3-3.7h-4.5v-2.9L300.5,176.6z M291.9,185.8v2.5h5v-2.5
	H291.9z M291.9,190.5v2.7h5v-2.7H291.9z M291.9,195.6v2.4h5v-2.4L291.9,195.6z M297,201.2c1.2,1.5,2.6,2.9,4.1,4.2
	c-0.6,0.8-1.1,1.7-1.5,2.6c-1.6-1.4-3-3-4.4-4.6L297,201.2z"/>
<path class="st1" d="M313.9,270l-10.4,67.3c-0.4,2.5-2.6,4.4-5.1,4.4c-0.7,0-1.4-0.1-2-0.4l-19.9-8.3l-8.2,12.4
	c-0.6,1-1.7,1.7-2.8,1.6c-1.9,0-3.4-1.5-3.4-3.4c0,0,0,0,0,0V328c0-1.2,0.4-2.3,1.1-3.2l35.2-45.3l-47.6,42.9l-16.6-6.9
	c-1.9-0.8-3.1-2.6-3.2-4.6c-0.2-2,0.9-3.9,2.6-4.8l72.7-41.4c2.5-1.4,5.6-0.6,7.1,1.9C313.9,267.6,314.1,268.8,313.9,270L313.9,270z
	"/>
<path class="st2" d="M426.9,195.1l21.1,81.3c0.9,3.4-1.2,6.9-4.6,7.8c-0.5,0.1-1,0.2-1.5,0.2l-26.6,0.3l-3.3,18
	c-0.1,1.4-1.1,2.7-2.4,3.2c-2.1,0.9-4.5-0.1-5.5-2.2c0,0,0,0,0,0l-7.6-17.7c-0.6-1.3-0.7-2.8-0.3-4.1l17.7-68.4l-33,71.8l-22.2,0.3
	c-2.5,0-4.8-1.4-5.9-3.7c-1.1-2.2-0.9-4.8,0.6-6.7l62.1-82.3c2.1-2.8,6.1-3.4,8.9-1.3C425.7,192.5,426.5,193.7,426.9,195.1
	L426.9,195.1z"/>
<path class="st0" d="M68.7,46.3L68.7,46.3l-2,1.2l-0.3-1.7l2.6-1.5h1.6v13h-1.8V46.3z"/>
<path class="st0" d="M89.9,42.9v1.7h-4.8v2.7H89v1.7h-3.9v3.3h5.4v1.8h-5.4v4.6h-1.5v-4.6h-7.8v-1.8h2.6v-5h5.2v-2.7H79
	c-0.7,1.4-1.4,2.7-2.3,4c-0.3-0.5-0.6-0.9-1.1-1.3c1.4-2.1,2.5-4.4,3.2-6.8l1.6,0.6c-0.3,0.9-0.5,1.4-0.7,1.8L89.9,42.9z M79.9,48.9
	v3.3h3.7v-3.3L79.9,48.9z"/>
<path class="st0" d="M99.9,41.3v6.2h-4.3v11H94V41.3H99.9z M95.5,42.7v1h2.9v-1H95.5z M95.5,45v1h2.9v-1L95.5,45z M103.5,48.8v7.5
	h-4.7v0.9h-1.4v-8.4H103.5z M98.9,50.4v1.5h3.2v-1.5H98.9z M98.9,53.3v1.6h3.2v-1.6L98.9,53.3z M107.2,41.3v15.4
	c0,1.5-0.7,1.7-2.6,1.9c-0.1-0.6-0.3-1.2-0.6-1.8h1.4c0.2,0,0.3-0.2,0.3-0.4v-8.9h-4.3v-6.2L107.2,41.3z M102.8,42.7v1h2.8v-1H102.8
	z M102.8,45v1h2.8v-1L102.8,45z"/>
<path class="st0" d="M114.9,42.5c-0.6,3.1-1,6.2-1,9.4c0,1.9,0.2,3.9,0.4,5.8l-1.6,0.4c-0.3-2-0.4-4-0.4-5.9c0-3.4,0.3-6.8,0.8-10.2
	L114.9,42.5z M117.6,52c0,1.9,0.1,3.1,4.5,3.1c1,0,1.9-0.1,2.9-0.3l0.1,2c-0.9,0.2-1.8,0.2-2.7,0.2c-5.5,0-6.2-2-6.2-5.1L117.6,52z
	 M124.1,45.7c-0.8-0.1-1.5-0.1-2.3-0.1c-1.7,0-3.4,0.2-5,0.6l-0.2-1.8c1.7-0.5,3.4-0.7,5.2-0.6c0.6,0,1.2,0,2.3,0.1L124.1,45.7z"/>
<path class="st0" d="M131.4,58.5H130v-9.7c-0.4,0.7-0.8,1.4-1.2,2.1c-0.2-0.6-0.5-1.2-0.8-1.7c1.5-2.8,2.6-5.7,3.3-8.7l1.6,0.7
	c-0.3,1.1-0.7,2.2-1.5,4.3V58.5z M138.6,40.8v2.3h4.4v1.6h-4.5v1.6h3.9v5.1h-3.9c-0.1,1.3-0.5,2.5-1.1,3.6c1.1,0.7,2.4,1.3,5.9,1.7
	c-0.4,0.6-0.6,1.3-0.8,2c-2.2-0.3-4.3-1.1-6.1-2.4c-1.1,1.1-2.4,1.9-3.8,2.4c-0.2-0.6-0.4-1.2-0.8-1.7c1.2-0.4,2.2-1,3.2-1.8
	c-0.8-0.8-1.5-1.6-2-2.6l1.3-0.9c0.5,0.8,1,1.6,1.7,2.2c0.5-0.8,0.8-1.8,0.9-2.7h-3.9v-5h3.9v-1.6h-4.4v-1.6h4.4v-2.3L138.6,40.8z
	 M134.6,47.7v2.1h2.4v-2.1H134.6z M138.6,47.7v2.1h2.3v-2.1H138.6z"/>
<path class="st0" d="M159.5,41.7v15.1c0,0.9-0.1,1.4-2.4,1.9c-0.1-0.7-0.3-1.4-0.8-2h1.4c0.1,0,0.2-0.1,0.2-0.3v-4.2h-3.8v6.2h-1.5
	v-6.2H149c-0.2,2.3-0.9,4.5-2,6.5c-0.3-0.6-0.7-1.1-1.2-1.4c1.7-3.1,1.8-5.3,1.9-9.4c0-0.7,0-1.5,0-6.2H159.5z M149.2,47.9v2.7h3.4
	v-2.7H149.2z M149.2,43.5v2.7h3.4v-2.7H149.2z M154.1,43.5v2.7h3.8v-2.7H154.1z M154.1,47.9v2.7h3.8v-2.7L154.1,47.9z"/>
<path class="st0" d="M172.6,40.7c0,0.7-0.1,2.5-0.1,3.4c1.6,0,4.4-0.2,5.5-0.3v1.9c-0.4,0-4,0-5.5,0.1c0,0.9-0.1,4.7-0.1,5.5
	s0.1,1.3,0.1,1.7c0,3.4-2.3,4.9-5.1,5.9c-0.2-0.6-0.4-1.2-0.8-1.7c1.1-0.2,4.4-0.9,4.6-4.3c-0.4,0.6-1,1-1.8,1.1
	c-1.2,0-2.3-1.4-2.3-3.2c0-2,1-3.6,2.3-3.6c0.7,0,1.3,0.4,1.6,1.1c0-0.7,0-1.8,0-2.3c-0.9,0.1-5.8,0.5-7.1,0.6l-0.1-1.9
	c1.5-0.1,2.3-0.1,3.1-0.1l4-0.2l-0.1-3.5L172.6,40.7z M169.6,48.5c-0.7,0-1.2,1.1-1.2,1.9c0,1.6,0.8,2,1.2,2c0.8,0,1.3-1.1,1.3-2
	C170.9,50.3,170.5,48.5,169.6,48.5L169.6,48.5z"/>
<path class="st0" d="M192,43.1c-1,0.9-1.9,1.8-2.8,2.8c-0.6,0.7-1.3,1.4-2.4,2.6c0.9-0.5,2-0.8,3.1-0.8c2.5-0.1,4.5,1.9,4.6,4.4
	c0,0.1,0,0.3,0,0.4c0.1,2.9-2.1,5.3-4.9,5.4c-0.2,0-0.3,0-0.5,0c-2.3,0-4.3-1.1-4.3-3.1c0-1.3,1.1-2.3,2.4-2.3c0,0,0,0,0,0
	c0.8,0,1.6,0.4,2.2,1c0.7,0.7,1.1,1.6,1.3,2.5c1.4-0.7,2.2-2.1,2.1-3.6c0.1-1.7-1.2-3.2-3-3.3c-0.2,0-0.3,0-0.5,0
	c-2.7,0-4.5,2-6.5,4.2l-1.1-1.5c2.5-2.5,6.5-6.9,7.8-8.5c-1.7,0.5-3.5,0.9-5.2,1l-0.1-1.9c2.4,0,4.7-0.3,6.9-1L192,43.1z
	 M189.3,56.5c-0.2-0.6-0.8-2.3-2.2-2.3c-0.6,0-1,0.4-1.1,0.9c0,0,0,0,0,0.1c0,0.5,0.8,1.4,2.5,1.4C188.8,56.5,189.1,56.5,189.3,56.5
	L189.3,56.5z"/>
</svg>
