<?xml version="1.0" encoding="utf-8"?>
<!-- Generator: Adobe Illustrator 25.2.3, SVG Export Plug-In . SVG Version: 6.00 Build 0)  -->
<svg version="1.1" id="レイヤー_1" xmlns="http://www.w3.org/2000/svg" xmlns:xlink="http://www.w3.org/1999/xlink" x="0px"
	 y="0px" viewBox="0 0 465 373" style="enable-background:new 0 0 465 373;" xml:space="preserve">
<style type="text/css">
	.st0{fill:#303030;}
	.st1{fill:#F49800;}
	.st2{fill:none;stroke:#FFFFFF;stroke-width:4;stroke-miterlimit:10;}
	.st3{fill:#FFFFFF;}
	.st4{fill:none;stroke:#F49800;stroke-width:4;stroke-miterlimit:10;}
</style>
<g id="文字">
	<path class="st0" d="M81.8,64.7v13.2h6.7v-9.8h3V81h-9.7v13.4h8.4V84.1h3.2v16.6h-3.2v-2.9H71v3.2h-3.3V84.2H71v10.2h7.7V81h-9.4
		V68.1h3v9.8h6.4V64.7H81.8z"/>
	<path class="st0" d="M103.6,76.7v-3.6h10.3c0.1-2.4,0.1-5.2,0.1-8.1h3.3c0,2.5-0.1,5.4-0.2,8.1h11.5c0,6.2-0.2,17.8-0.9,21.8
		c-0.6,3.3-1.8,4-6.9,4.6c-0.3-1.4-0.8-2.7-1.5-3.9h4.2c0.9,0,1-0.8,1.2-3.1c0.3-3.7,0.6-11,0.6-15.8h-8.5c-0.3,4-0.9,12.6-7.7,19.5
		c-1.3,1.3-2.7,2.4-4.3,3.4c-0.4-1.3-1.1-2.4-2-3.4c9.7-5.3,10.5-15.2,10.8-19.5L103.6,76.7z"/>
	<path class="st0" d="M166.4,66.3v3.4h-12.5c-0.3,1.4-0.7,3.2-0.9,4.3h11.5v26h-3v-1.9h-18.4v2.2h-3V74h10c0.2-1,0.5-2.9,0.7-4.3
		h-12.5v-3.4H166.4z M143.1,77v17.7h3.7V77H143.1z M149.6,77v4h5.3v-4H149.6z M149.6,83.6v4.1h5.3v-4.2L149.6,83.6z M149.6,90.5v4.3
		h5.3v-4.3L149.6,90.5z M157.9,77v17.7h3.6V77H157.9z"/>
	<path class="st0" d="M180.7,74.6h3V78h-3v2.3c1,1.2,2.4,2.7,3.5,3.8c-0.6,1.2-1.2,2.2-1.6,3.3c-0.7-0.8-1.4-1.6-1.9-2.1v15.2h-2.8
		V87.4c-0.8,2-1.7,4-2.7,5.9c-0.2-1.3-0.8-2.6-1.7-3.6c2-3.7,3.5-7.6,4.4-11.7h-3.8v-3.4h3.8v-4.7c-1,0.3-2.1,0.6-3,0.8
		c-0.3-1.2-0.7-2.3-1.2-3.3c3.3-0.6,5.2-1.5,9-3.2l1.5,3.4c-1,0.4-2.3,0.9-3.6,1.4L180.7,74.6z M200.7,80.2v14.8h-3.4
		c1.7,1.3,3.7,2.3,5.8,2.9c-0.7,0.9-1.1,1.9-1.4,3c-2.5-0.8-4.9-2.1-7-3.7l1.2-2.1h-6.3l1.3,2.1c-2.2,1.7-4.6,3-7.2,3.8
		c-0.4-1-0.9-2-1.5-2.9c2.2-0.6,4.2-1.6,6-3h-2.4V80.2L200.7,80.2z M194.9,64.3v2.8h7.2V70h-7.2v1.6h5.7v2.6h-5.7v1.8h8.1v2.7h-18.8
		v-2.8h7.6v-1.8h-5.7v-2.6h5.7V70h-6.8v-2.9h6.8v-2.8H194.9z M188.6,82.8v1.8h9.1v-1.8H188.6z M188.6,86.5v1.9h9.1v-1.9H188.6z
		 M188.6,90.6v2h9.1v-2H188.6z"/>
	<path class="st1" d="M276,36.3v8l-25.3,61.9h-10.4l25.2-59.7v-0.2h-28.3v-10L276,36.3z"/>
	<path class="st1" d="M318.7,46.4h-22.9L294,61.4c1.6-0.3,3.2-0.4,4.8-0.4c4.8-0.1,9.6,1.3,13.6,4c4.6,3.2,8.2,9.3,8.2,18.5
		c0,13.2-9.2,24-22.9,24c-7,0-12.6-2.3-15.6-4.5l2.2-9.1c4,2.5,8.5,3.9,13.2,4c7,0.2,12.8-5.4,13-12.4c0-0.3,0-0.6,0-0.9
		c0-8.1-4.7-14.1-16.8-14.1c-2.8,0-5.7,0.2-8.5,0.8l3.7-34.7h29.8L318.7,46.4z"/>
	<path class="st1" d="M327.1,71.5c0-22.2,8.2-36.3,21.2-36.3c13.6,0,20.6,14.2,20.6,35.5c0,22.3-7.2,36.8-21.2,36.8h-0.2
		C334.9,107.4,327.3,93.5,327.1,71.5z M358.9,70.9c0-16.7-3.5-26.5-11-26.5c-6.6,0-11,9.7-11,26.5c-0.2,17.5,4.2,27.2,10.9,27.2h0.1
		C355.2,98.1,358.9,88.1,358.9,70.9z"/>
	<path class="st1" d="M373,71.5c0-22.2,8.2-36.3,21.2-36.3c13.6,0,20.6,14.2,20.6,35.5c0,22.3-7.2,36.8-21.2,36.8h-0.2
		C380.8,107.4,373.1,93.5,373,71.5z M404.8,70.9c0-16.7-3.5-26.5-11-26.5c-6.6,0-11,9.7-11,26.5c-0.2,17.5,4.2,27.2,10.9,27.2h0.1
		C401,98.1,404.8,88.1,404.8,70.9L404.8,70.9z"/>
	<path class="st0" d="M424.9,89.4c0-2.1-0.1-3.7-0.1-5.3h2.8l0.2,2.6h0.1c0.7-1.8,2.4-2.9,4.3-3c1.9,0.1,3.5,1.4,3.9,3.3h0.1
		c0.4-0.9,1-1.6,1.7-2.3c0.8-0.7,1.8-1,2.8-1c2.3,0,4.5,2,4.5,7.7v11.5h-3.2V92c0-3-0.7-5-2.5-5c-1.2,0-2.2,1.1-2.5,2.6
		c-0.1,0.5-0.2,1.1-0.2,1.6v11.6h-3.2V91.5c0-2.4-0.7-4.4-2.4-4.4c-1.3,0-2.3,1.3-2.6,2.8c-0.1,0.5-0.2,1-0.2,1.6v11.4h-3.2
		L424.9,89.4z"/>
	<path class="st0" d="M447.5,89.2V88l1.1-1.2c2.5-2.8,3.5-4.1,3.6-5.7c0-1.1-0.5-2.1-1.8-2.1c-0.8,0.1-1.6,0.4-2.1,1l-0.5-1.4
		c0.8-0.8,1.9-1.3,3-1.3c2.1,0,3.2,1.7,3.2,3.5c0,2.1-1.2,3.7-3.1,5.8l-0.8,0.9l0,0h4.1v1.7L447.5,89.2z"/>
	<path class="st0" d="M68.7,46.3L68.7,46.3l-2,1.2l-0.3-1.7l2.6-1.5h1.6v13h-1.8V46.3z"/>
	<path class="st0" d="M89.9,42.9v1.7h-4.8v2.7H89v1.7h-3.9v3.3h5.4v1.8h-5.4v4.6h-1.5v-4.6h-7.8v-1.8h2.6v-5h5.2v-2.7H79
		c-0.7,1.4-1.4,2.7-2.3,4c-0.3-0.5-0.6-0.9-1.1-1.3c1.4-2.1,2.5-4.4,3.2-6.8l1.6,0.6c-0.3,0.9-0.5,1.4-0.7,1.8L89.9,42.9z
		 M79.9,48.9v3.3h3.7v-3.3L79.9,48.9z"/>
	<path class="st0" d="M99.9,41.3v6.2h-4.3v11H94V41.3H99.9z M95.5,42.7v1h2.9v-1H95.5z M95.5,45v1h2.9v-1L95.5,45z M103.5,48.8v7.5
		h-4.7v0.9h-1.4v-8.4H103.5z M98.9,50.4v1.5h3.2v-1.5H98.9z M98.9,53.3v1.6h3.2v-1.6L98.9,53.3z M107.2,41.3v15.4
		c0,1.5-0.7,1.7-2.6,1.9c-0.1-0.6-0.3-1.2-0.6-1.8h1.4c0.2,0,0.3-0.2,0.3-0.4v-8.9h-4.3v-6.2L107.2,41.3z M102.8,42.7v1h2.8v-1
		H102.8z M102.8,45v1h2.8v-1L102.8,45z"/>
	<path class="st0" d="M117.9,56.2c3.9-0.8,5.5-3.1,5.5-6.4c0-3.5-1.7-5.3-4.5-5.6c-0.9,6.5-2.7,10.3-3.7,11.4
		c-0.3,0.4-0.8,0.7-1.3,0.7c-1.6,0-2.8-2.7-2.8-5.6c0-4.8,3.1-8.1,7.5-8.1c1.9,0,3.6,0.8,4.9,2.2c1,1.4,1.6,3.1,1.5,4.9
		c0,5.7-3.9,7.5-6.5,8.2C118.4,57.4,118.2,56.8,117.9,56.2z M112.6,50.8c0,2,0.7,3.6,1.4,3.6c0.6,0,1.1-1.4,1.4-2.1
		c1-2.5,1.7-5.2,2-7.9C114.8,44.9,112.6,47.1,112.6,50.8z"/>
	<path class="st0" d="M142.1,41.6v1.7h-5.7v7h6.4v1.6h-6.4v6.9h-1.6v-6.9h-6.4v-1.7h6.4v-7h-5.7v-1.7H142.1z M131.2,44.6
		c0.8,1.2,1.4,2.6,2,3.9l-1.4,0.9c-0.5-1.4-1.1-2.7-1.8-4L131.2,44.6z M141.4,45.4c-0.8,1.4-1.7,3-2.3,4.2c-0.4-0.3-0.8-0.6-1.2-0.9
		c0.5-1,1.6-3.1,2.1-4.4L141.4,45.4z"/>
	<path class="st0" d="M149,41.1v4.6h1.6v1.6H149v5.3c0.5-0.2,1-0.4,1.7-0.7v1.7c-1.5,0.5-3.2,1.2-4.7,1.7l-0.4-1.9l1.9-0.5v-5.8H146
		v-1.6h1.6v-4.6H149z M160.2,43.9c0,2.7,0,10.2-0.5,12.7c-0.3,1.5-0.8,1.9-3.6,1.9c0-0.6-0.2-1.2-0.5-1.8h1.7c0.7,0,0.9,0,1.1-2.4
		c0.2-2.8,0.2-6.4,0.2-8.8h-5.3c-0.4,1.6-1,3.1-1.6,4.6c-0.4-0.3-0.9-0.5-1.3-0.8c1.3-2.8,2.1-5.8,2.5-8.8l1.6,0.3
		c-0.2,1.1-0.4,2.1-0.7,3L160.2,43.9z M157.5,53.3l-5.2,1.8l-0.4-1.9c1.8-0.5,3.7-1.1,5.6-1.7V53.3z M157,48.2v1.6h-4v-1.6H157z"/>
	<polygon class="st0" points="193.6,362.6 27.5,250.2 300,119.8 437.5,190.3 	"/>
	<line class="st2" x1="327.3" y1="256.7" x2="192.7" y2="179.2"/>
	<path class="st2" d="M276.7,205.5c-10.7-6-27.8-6.1-38.6-0.2c-11.1,6.1-11.6,16.4-0.6,22.8s29.2,6.4,40-0.2
		C288,221.6,287.5,211.6,276.7,205.5z"/>
	<path class="st3" d="M165.6,256.5c7.4,0,14,1.6,18.7,4.5c3.9,2.4,6.1,5.6,6.1,8.8c0,4.1-3.2,8.4-8.8,11.7c-6.3,3.8-14.8,6-23.3,6
		c-7.6,0-14.3-1.7-19.1-4.8c-2.7-1.8-5.8-4.7-5.6-8.8c0.2-4.3,3.9-8.9,10.1-12.2C150.4,258.2,158,256.4,165.6,256.5 M165.6,252.5
		c-8.4-0.1-16.6,1.9-24,5.8c-14,7.7-16.4,20.2-4.7,27.9c5.6,3.7,13.3,5.5,21.3,5.5c8.9,0,18.2-2.2,25.4-6.6
		c13.3-8.1,14.3-20.3,2.8-27.4C180.9,254.2,173.4,252.5,165.6,252.5L165.6,252.5z"/>
	<polygon class="st0" points="83.8,269.3 131,244.5 207.5,292.9 162.2,321.7 	"/>
	<path class="st3" d="M131,246.8l72.9,46l-41.6,26.5l-74.6-49.8L131,246.8 M131.2,242.2l-51.3,26.9l82.3,55l49.1-31.3L131.2,242.2
		L131.2,242.2z"/>
	<path class="st3" d="M118.3,274.5l37.2,24.3l-14.5,8.8l-37.4-25L118.3,274.5 M118.5,269.9l-22.6,12.4l45,30.1l22.1-13.5
		L118.5,269.9L118.5,269.9z"/>
	<path class="st3" d="M331.3,159.3v3c5.9-0.1,11.7,1.2,17,3.8c4.3,2.2,6.9,5.2,7,7.9s-2.2,4.6-4.1,5.8c-3.6,2.2-8.9,3.4-14.7,3.4
		c-6,0.1-11.9-1.3-17.2-4c-4.2-2.3-6.7-5.2-6.7-7.9c0-2.2,1.7-4.3,4.8-6c3.6-2,8.6-3.1,14.1-3.1L331.3,159.3 M331.3,159.3
		c-5.8,0-11.4,1.1-15.5,3.4c-9.1,5-8.3,13.6,2,19.1c5.8,2.9,12.2,4.4,18.7,4.4c6.1,0,12-1.3,16.3-3.9c8.5-5.2,7.1-13.6-3-18.9
		C344,160.7,337.7,159.2,331.3,159.3L331.3,159.3z"/>
	<polygon class="st0" points="297.1,156.8 324.1,142.7 390.5,176.9 365.1,193.1 	"/>
	<path class="st3" d="M324.1,144.4l63.4,32.6L365,191.3l-64.7-34.5L324.1,144.4 M324.1,141l-30.2,15.8l71.2,38l28.3-18L324.1,141
		L324.1,141z"/>
	<path class="st3" d="M341.6,151.1l31.6,16.3l-6.4,3.9L335,154.7L341.6,151.1 M341.5,147.7l-12.9,7.1l38.2,20l12.4-7.6L341.5,147.7
		L341.5,147.7z"/>
	<polygon class="st4" points="423.8,190.1 194.8,348.3 47.7,250 192.7,179.2 300.5,126.6 	"/>
	<path class="st0" d="M316.7,294.6v4.3h3.5v1.8h-3.5c0,5.5-1,6.8-1.6,7.5c-1.4,1.6-3.2,2.7-5.3,3.1c-0.1-0.7-0.5-1.4-0.9-2
		c0.9-0.1,1.8-0.4,2.6-0.7c3.1-1.4,3.4-3.6,3.4-7.9h-4v4.5h-1.7v-4.5H306v-1.8h3.4v-3.8h1.6v3.8h4v-4.3L316.7,294.6z"/>
	<path class="st0" d="M325.6,300.2c0.8,1.5,1,2,1.7,3.7l-1.3,0.8c-0.5-1.3-1-2.5-1.6-3.7L325.6,300.2z M335.2,300.2
		c-1.3,5.2-2.6,9.4-8.4,11.9c-0.1-0.6-0.4-1.1-0.8-1.6c3.7-1.3,6.2-3.2,7.6-10.9L335.2,300.2z M329,299.1c0.7,1.7,0.9,2.2,1.4,3.7
		l-1.3,0.7c-0.4-1.3-0.8-2.5-1.4-3.7L329,299.1z"/>
	<path class="st0" d="M340.5,300.5v-1.8h4.1v-4.2h1.8c0,2.6,0,2.8-0.1,4.2h5.3c-0.1,4.2-0.3,9-0.7,10.4c-0.3,1-0.8,1.5-3.6,1.6
		c-0.1-0.7-0.3-1.4-0.5-2.1h2.1c0.4,0,0.4-0.2,0.6-1.1c0.3-2.3,0.4-4.7,0.4-7h-3.6c-0.3,3.2-0.8,5.9-3.4,8.8
		c-0.7,0.8-1.5,1.5-2.5,2.1c-0.3-0.6-0.6-1.2-1.1-1.7c1.8-1.2,4.9-3.3,5.2-9.2L340.5,300.5z"/>
	<path class="st0" d="M369.3,301.6v2h-13.1v-2H369.3z"/>
	<path class="st0" d="M384.3,296.1l1.1,1.2c-0.1,0.4-0.3,0.8-0.4,1.1c-2.2,8.9-7.2,11.4-10,12.5c-0.1-0.7-0.4-1.4-0.7-1.9
		c4-1.5,7.2-3.8,9.2-11h-10.1v-1.9h10.7L384.3,296.1z"/>
	<path class="st0" d="M397,311.9h-1.5v-7.4c-1.4,1.4-3,2.5-4.7,3.5c-0.1-0.6-0.4-1.1-0.7-1.6c3.5-1.8,6.5-4.6,8.6-7.9l1.2,1.2
		c-0.9,1.2-1.9,2.4-3,3.5L397,311.9z"/>
	<path class="st0" d="M419,301.6v2h-13.2v-2H419z"/>
	<path class="st0" d="M426.8,296.2c-0.1,4.6-0.1,7.2-0.9,9.5c-0.7,2.1-1.9,4-3.6,5.4c-0.3-0.6-0.6-1.2-1-1.7
		c3.7-2.8,3.8-6.1,3.8-13.3H426.8z M430.8,294.9v12.6c1.9-1.7,3.5-3.7,4.8-6c0.4,0.4,0.8,0.8,1.2,1.2c-1.7,3-4,5.7-6.8,7.8l-1-1.4
		l0.2-0.3v-14L430.8,294.9z"/>
	<path class="st0" d="M444.4,294.1v5.5c2.5,1.1,4.8,2.4,7,3.9l-0.9,1.8c-1.9-1.5-3.9-2.7-6.1-3.6v9.7h-1.7v-17.4H444.4z
		 M449.2,299.2c-0.6-0.7-1.2-1.4-1.8-2.1l0.8-0.9c0.7,0.6,1.3,1.3,1.9,2L449.2,299.2z M449.7,294.3c0.7,0.6,1.4,1.4,1.9,2l-0.9,1.1
		c-0.6-0.7-1.2-1.4-1.9-2.1L449.7,294.3z"/>
	<path class="st1" d="M344.2,321v21.1H342v-18c-1,0.6-2.1,1-3.2,1.1v-2.5c1.4,0.1,2.7-0.6,3.5-1.7L344.2,321z"/>
	<path class="st1" d="M376.9,319.7v2.5h-9.4c-0.2,1.1-0.5,2.4-0.7,3.2h8.6V345h-2.3v-1.4h-13.7v1.6h-2.2v-19.8h7.5
		c0.1-0.7,0.4-2.2,0.5-3.2h-9.4v-2.5L376.9,319.7z M359.4,327.7V341h2.7v-13.3L359.4,327.7z M364.3,327.7v3h4v-3H364.3z
		 M364.3,332.7v3.1h4v-3.1H364.3z M364.3,337.8v3.2h4v-3.2L364.3,337.8z M370.5,327.7V341h2.7v-13.3L370.5,327.7z"/>
	<path class="st0" d="M386.1,323.3c-0.1,1.2-0.2,3.6-0.2,4.5c0,0.5,0,1.2,0.1,2.6c1.5-0.7,1.9-0.8,5.2-2.1l0.6,2
		c-4,1.2-6.5,1.9-8.3,3.3c-0.9,0.6-1.4,1.5-1.5,2.5c0,2.2,2.2,2.4,5.3,2.4c1.6,0,3.2-0.1,4.7-0.4l0.1,1.9c-1.4,0.2-2.8,0.3-4.2,0.3
		c-1.9,0-5.2-0.2-6.4-1.6c-0.6-0.7-0.9-1.5-0.9-2.4c0-2.7,2.1-4.2,4.2-5.4c-0.3-1.7-0.5-3.4-0.5-5.1c0-0.6,0-1.4,0.1-2.5H386.1z"/>
	<path class="st0" d="M409.4,323.7v14.7c0,1.1,0,1.6-2.8,2.2c0-0.7-0.2-1.4-0.5-2.1h1.5c0.2,0,0.2-0.1,0.2-0.3v-12.9h-9.9v15.2h-1.5
		v-16.7H409.4z M406.6,327.3v1.6h-7.6v-1.6H406.6z M406.1,330.7v6.6h-1.5v-0.9h-3.7v1.1h-1.5v-6.8H406.1z M400.9,332.3v2.5h3.7v-2.5
		H400.9z"/>
	<path class="st0" d="M416.8,324.1c-0.3,3-0.5,8.2-0.5,10.3c-0.1,0.9,0,1.9,0.4,2.7c0.5,0.7,1.3,1.1,2.1,1c1.8,0,4.3-1.1,6-5.9
		c0.4,0.5,0.9,0.9,1.4,1.2c-1.8,3.5-3,4.7-4.3,5.4c-1,0.6-2.1,0.9-3.2,0.9c-1.2,0-2.4-0.5-3.1-1.5c-0.6-1.2-0.9-2.5-0.8-3.9
		c0-1.7,0.2-9,0.2-10.5L416.8,324.1z M420.8,324.6c0.6,0.6,1.3,1.4,1.8,2.1l-0.9,1c-0.5-0.7-1.1-1.5-1.7-2.1L420.8,324.6z
		 M423.4,325.9c-0.5-0.7-1.2-1.4-1.8-2.1l0.9-1c0.7,0.6,1.3,1.3,1.9,2L423.4,325.9z"/>
</g>
</svg>
