<?xml version="1.0" encoding="utf-8"?>
<!-- Generator: Adobe Illustrator 25.2.3, SVG Export Plug-In . SVG Version: 6.00 Build 0)  -->
<svg version="1.1" id="レイヤー_1" xmlns="http://www.w3.org/2000/svg" xmlns:xlink="http://www.w3.org/1999/xlink" x="0px"
	 y="0px" viewBox="0 0 465 373" style="enable-background:new 0 0 465 373;" xml:space="preserve">
<style type="text/css">
	.st0{fill:#333333;}
	.st1{fill:#F49800;}
	.st2{fill:#212A34;}
</style>
<g id="文字">
	<path class="st0" d="M103.8,40.4v9h5.9c0,6.4-0.1,18-1,23.4c-0.1,1-0.5,1.9-1.2,2.6c-1.3,0.6-2.6,1-4,1.1c-0.1-1.3-0.5-2.5-1.2-3.6
		h2.5c0.8,0,1-0.1,1.2-2.2c0.3-2.8,0.5-7,0.6-9.8c0-1.7,0.1-4,0.2-8.3h-3.2c0,9-1.1,17.8-8.1,24.5c-0.4-1.1-1.1-2.1-2-2.8
		c0.5-0.5,1.2-1.2,1.6-1.7l-14,2.8L80.7,72c1.9-0.3,5-0.7,6.9-1v-2.8h-5.4v-2.7h5.5v-2.2h-5.9v-2.6h5.9v-2.2h-5.9v-8.2h14.5v8.2
		h-5.9v2.2h5.8v2.6h-5.8v2.2h5.3V68h-5.3v2.4c1.6-0.3,4-0.8,5.7-1.2v2.2c4.6-6,4.6-14.7,4.6-18.9h-3.4v-3.2h3.5v-9L103.8,40.4z
		 M93.4,40.6v3.2h3.7v2.9h-3.7V49h-2.5v-2.3h-3.7V49h-2.6v-2.3h-3.8v-2.9h3.8v-3.2h2.6v3.2h3.7v-3.2H93.4z M84.3,52.9v3h3.4v-3H84.3
		z M90.3,52.9v3h3.3v-3H90.3z"/>
	<path class="st0" d="M126.3,55.5h16.8v7.3h-3v-4.2h-11.2V63h-2.7v-2.4l-2.7,0.8l-0.3-0.9l-2,0.2v15.8h-2.8V60.9
		c-1.4,0.2-3,0.4-4.6,0.5l-0.5-3.4l3-0.1c0.8-1.5,1.5-3.2,2.2-4.7c-1.7-1.5-3.5-2.7-5.4-3.9l1.4-2.9l1.5,0.9
		c0.8-2.2,1.8-4.7,2.7-7.5l2.8,1.6c-1.1,2.5-2.2,5.3-3.2,7.5l1.7,1.2c0.7-1.7,1.7-3.8,2.4-5.8l2.8,1.8c-1.9,3.7-4,8-6,11.7
		c1.1,0,2.2-0.1,3.3-0.2c-0.2-1-0.6-2.1-0.9-3.1l2.7-1c0.7,2.1,1.3,4.4,1.8,6.5L126.3,55.5z M117.8,63.9c-0.3,3.3-0.9,6.5-1.8,9.6
		c-0.8-0.4-1.7-0.7-2.6-1c1-3,1.7-6.2,1.8-9.3L117.8,63.9z M123.3,70.4c-0.5-2.2-0.9-4.5-1.2-6.8l2.5-0.6c0.3,2.3,0.7,4.5,1.2,6.7
		L123.3,70.4z M133.3,60.6c-0.2,6.9-0.6,12.8-7.4,15.9c-0.4-1.1-1-2.2-1.7-3.1c5.3-2,6.2-4.7,6.1-12.8
		C130.3,60.6,133.3,60.6,133.3,60.6z M135.8,40.4v3.8h7.4v3.1h-7.4v3h6.1v3h-14.4v-3h5.5v-3h-6.5v-3.1h6.5v-3.8H135.8z M138.4,60.6
		v11.7c0,0.6,0.1,0.6,0.5,0.6c1.6,0,1.9,0,2.1-0.4c0.4-1.2,0.6-2.5,0.7-3.8c0.8,0.5,1.7,1,2.7,1.2c-0.6,4.2-1.3,5.9-3.9,5.9
		c-2.8,0-3,0-3.8-0.4c-0.7-0.4-1.1-1.2-1-2V60.6H138.4z"/>
	<path class="st0" d="M175.8,44.6V48h-9.6v5.4h7.8v3.3h-7.8v6.7H177V67h-10.8v9.2h-3.1V67h-15.5v-3.6h5.2v-10h10.3V48H154
		c-1.3,2.8-2.9,5.5-4.6,8c-0.6-1-1.3-1.9-2.1-2.6c2.8-4.2,5-8.8,6.5-13.6l3.1,1.1c-0.6,1.7-1,2.7-1.5,3.7
		C155.4,44.6,175.8,44.6,175.8,44.6z M155.8,56.8v6.7h7.3v-6.7H155.8z"/>
	<path class="st0" d="M190.4,40.5v6.8h2.7c-0.6-0.6-1-1.1-1.7-1.8c1-1.3,1.9-2.7,2.8-4.2l2.1,2.1c-1.1,1.4-2,2.7-2.8,3.8h3.1v2.7
		h-6.1v0.5c1.7,1.3,3.5,2.4,5.5,3.2c-0.5,1-1,2-1.4,3c-1.4-0.8-2.8-1.7-4.1-2.6v3.2h-2.9v-4.1c-1.6,1.8-3.5,3.4-5.5,4.8
		c-0.5-0.8-0.9-1.6-1.7-2.8c2.4-1.4,4.6-3.1,6.5-5.2H181v-2.7h6.7v-6.8L190.4,40.5L190.4,40.5z M189.5,58.5l-1.1,2.5h8.2v2.8h-2.4
		c-0.3,2.2-1,4.2-2,6.2c0.7,0.5,1.5,1,2.4,1.7l-1.9,3c-0.8-0.7-1.7-1.3-2.6-2c-2.4,2.1-5.3,3.3-8.4,3.7c-0.3-1.1-0.7-2.2-1.3-3.2
		c3.7-0.3,5.1-0.8,7.1-2.3c-0.9-0.6-1.8-1.1-2.8-1.6l-0.5,1l-2.5-1.6c0.7-1.5,1.6-3.3,2.2-5h-3.4V61h4.5c0.4-1.1,0.8-2.2,1.4-3.7
		L189.5,58.5z M184.1,47.1c-0.6-1-1.4-2.4-2.3-3.7l2-1.9c0.9,1.3,1.7,2.6,2.4,3.9L184.1,47.1z M187.3,63.9l-1.2,2.7l3.7,1.9
		c0.8-1.5,1.3-3,1.7-4.6H187.3z M209.8,48.3v3.3h-1.9c-0.7,7.2-1.2,10.6-3.1,14.8c1.6,2.6,3.6,4.9,6.1,6.7c-0.9,1.1-1.5,2.3-1.9,3.6
		c-2.3-2.1-4.2-4.5-5.8-7.1c-1.8,2.6-4.1,4.9-6.7,6.8c-0.4-1.2-1-2.4-1.7-3.4c4.2-2.7,5.5-4.7,6.6-6.4c-1.3-2.9-1.9-4.8-2.8-9.6
		c-0.4,1.1-0.8,2.1-1.3,3.1c-0.6-1-1.3-2-2.1-2.8c1.4-2.9,2.6-5.9,3.5-9c0.7-2.5,1.4-5.1,1.9-8l2.9,1.1c-1.2,4.6-1.3,5.1-1.9,7
		L209.8,48.3z M200.5,51.5c0.2,4,1,7.9,2.5,11.5c1.2-3.7,1.9-7.6,2-11.5H200.5z"/>
	<path class="st1" d="M258.1,108.9h-0.2l-11.9,6.6l-2.1-9.5l15.7-8.4h9.5v72H258v-60.7H258.1z"/>
	<path class="st1" d="M314.9,169.6v-18.7h-31.4v-8.2l28.8-45.1h13.6v43.8h9v9.5h-9v18.7H314.9z M314.9,141.4v-21.8
		c0-3.8,0.1-7.8,0.3-11.7h-0.3c-2.1,4.2-3.8,7.8-5.7,11.4l-14.5,21.9v0.2H314.9z"/>
	<path class="st2" d="M341,163.4c0-3.3,2-5.7,5.2-5.7s5.1,2.4,5.1,5.7c0.2,2.9-2.1,5.5-5,5.6h-0.2c-2.9,0-5.2-2.4-5.2-5.3l0,0
		C341,163.7,341,163.6,341,163.4z"/>
	<path class="st1" d="M375.5,117.4c10.3,0,14.9,6.6,14.9,12.9c0,5.1-2.9,9.7-7.6,11.8v0.2c5.6,2.1,9.4,6.6,9.4,12.9
		c0,9.2-7.4,15.4-17.5,15.4c-11,0-17-6.8-17-14.1c0-6.2,3.4-10.7,9.2-13.3V143c-5.2-2.5-7.4-6.8-7.4-11.4
		C359.6,123.2,366.4,117.4,375.5,117.4L375.5,117.4z M375.2,164.1c5.4,0,8.8-3.6,8.8-8c0-5.6-3.8-8.4-9.8-9.9
		c-5.1,1.3-7.9,4.7-7.9,9.2c-0.2,4.7,3.5,8.6,8.2,8.8c0.2,0,0.4,0,0.6,0L375.2,164.1z M375.2,123.6c-5.1,0-7.7,3.5-7.7,7.3
		c-0.1,4.5,3.4,7.1,8.7,8.5c3.7-1,6.7-3.9,6.7-8.2c0-3.6-2.2-7.6-7.5-7.6H375.2z"/>
	<path class="st2" d="M432.4,137.1v3.5H422v5.3h8.5v3.3H422v6.6h11.6v3.6H422v9.1h-3.3v-9.1h-16.8v-3.6h5.6v-9.9h11.1v-5.3h-9.9
		c-1.4,2.8-3.1,5.4-5,7.9c-0.6-1-1.4-1.9-2.3-2.6c3-4.1,5.4-8.6,7-13.4l3.4,1.1c-0.7,1.7-1.1,2.7-1.6,3.6L432.4,137.1z M410.7,149.1
		v6.6h7.9v-6.6H410.7z"/>
	<path class="st1" d="M72.3,41.7v1.5h-5.1v6.3H73V51h-5.8v6.2h-1.4V51H60v-1.5h5.8v-6.3h-5.1v-1.5H72.3z M62.5,44.4
		c0.7,1.1,1.3,2.3,1.8,3.5L63,48.8c-0.4-1.2-1-2.4-1.7-3.5L62.5,44.4z M71.6,45.2c-0.7,1.3-1.5,2.7-2.1,3.8
		c-0.3-0.3-0.7-0.6-1.1-0.8c0.5-0.9,1.4-2.8,1.9-3.9L71.6,45.2z"/>
	<path class="st1" d="M62.7,59.4v4.2h1.5V65h-1.5v4.8c0.5-0.2,0.9-0.3,1.6-0.6v1.6c-1.3,0.5-2.9,1-4.2,1.6l-0.3-1.7l1.7-0.5V65H60
		v-1.4h1.5v-4.2C61.5,59.4,62.7,59.4,62.7,59.4z M72.8,61.9c0,2.4,0,9.2-0.5,11.4C72,74.7,71.6,75,69.1,75c0-0.6-0.2-1.1-0.4-1.6
		h1.6c0.7,0,0.8,0,1-2.2c0.2-2.5,0.2-5.7,0.2-7.9h-4.7c-0.4,1.4-0.9,2.8-1.5,4.2c-0.4-0.3-0.8-0.5-1.2-0.7c1.2-2.5,1.9-5.2,2.2-7.9
		l1.4,0.3c-0.2,1-0.4,1.9-0.6,2.7H72.8z M70.3,70.4L65.7,72l-0.3-1.7c1.6-0.4,3.4-1,5-1.5L70.3,70.4z M69.9,65.8v1.4h-3.7v-1.4H69.9
		z"/>
</g>
<g id="icon">
	<path class="st1" d="M209.1,204.2c-24.2,0-43.9,19.6-43.9,43.9s19.6,43.9,43.9,43.9s43.9-19.6,43.9-43.9l0,0
		C253,223.9,233.4,204.3,209.1,204.2L209.1,204.2L209.1,204.2z M223.8,253h-16.5c-1.7,0-3-1.3-3-3v-21.4c0.1-2.7,2.4-4.8,5.1-4.7
		c2.5,0.1,4.5,2.1,4.7,4.7v14.6h9.8c2.7,0.1,4.8,2.4,4.7,5.1C228.3,250.9,226.2,252.9,223.8,253L223.8,253z"/>
	<path class="st0" d="M155.5,243.2h-34.2c-2.7,0-4.9-2.2-4.9-4.9v-14.6H58v43.9c0.2,8,6.6,14.4,14.6,14.6h95.1
		c-7.9-9.6-12.3-21.7-12.2-34.1C155.5,246.5,155.6,244.9,155.5,243.2z"/>
	<path class="st0" d="M199.4,165.2H175v-14.6c-0.2-8-6.6-14.4-14.6-14.6h-48.8c-8,0.2-14.4,6.6-14.6,14.6v14.6H72.6
		c-8,0.2-14.4,6.6-14.6,14.6V214h109.8c10.2-12.4,25.4-19.5,41.4-19.5c1.6,0,3.3,0.1,4.9,0.2v-14.9
		C213.8,171.9,207.4,165.5,199.4,165.2z M160.4,165.2h-48.8v-14.6h48.8V165.2z"/>
</g>
</svg>
