<svg xmlns="http://www.w3.org/2000/svg" xmlns:xlink="http://www.w3.org/1999/xlink" viewBox="0 0 560.81 471.46"><defs><style>.cls-1{fill:url(#名称未設定グラデーション_3);}</style><linearGradient id="名称未設定グラデーション_3" x1="46.01" y1="446.11" x2="397.08" y2="95.04" gradientUnits="userSpaceOnUse"><stop offset="0" stop-color="#ea9412"/><stop offset="0.33" stop-color="#eb9713"/><stop offset="0.59" stop-color="#eda115"/><stop offset="0.81" stop-color="#f1b119"/><stop offset="1" stop-color="#f5c51d"/></linearGradient></defs><g id="レイヤー_4のコピー_2" data-name="レイヤー 4のコピー 2"><path class="cls-1" d="M265.21,228.44V218a6.93,6.93,0,0,0,.24-1c.34-3.9.6-7.8,1-11.69a133.77,133.77,0,0,1,4.39-22.15,144.87,144.87,0,0,1,39.06-65.6c26.88-26,59.14-39.94,96.51-41.88a140.28,140.28,0,0,1,28,1.37A147.82,147.82,0,0,1,459.6,83,144.83,144.83,0,0,1,518.77,120q38.93,40.29,41.85,96.34a140.88,140.88,0,0,1-1.35,28.2,149.47,149.47,0,0,1-6.09,25.58,148.1,148.1,0,0,1-94.3,93.5,144.67,144.67,0,0,1-37.73,7c-1.59.08-3.18.25-4.78.38h-7a11.24,11.24,0,0,0-1.14-.18A172.35,172.35,0,0,1,389.1,369a149.65,149.65,0,0,1-25.87-6.69c-.29-.1-.57-.24-.82-.34a1,1,0,0,1,0-.19c.57-.68,1.15-1.35,1.71-2a191.7,191.7,0,0,0,17.84-26,396.85,396.85,0,0,0,21.44-44.1c6.55-15.76,12.17-31.8,15.25-48.65a265.8,265.8,0,0,0,3.66-26.5c.49-6.11.74-12.22.64-18.34a184,184,0,0,0-1.3-19.48c-.67-5.47-1.6-10.9-2.71-16.3a126.17,126.17,0,0,0-5.11-18.48,58.38,58.38,0,0,0-19.59-26.61,42.64,42.64,0,0,0-21.83-8.65,66.33,66.33,0,0,0-12-.08A57.27,57.27,0,0,0,347.21,109a77.37,77.37,0,0,0-18.6,9.16A224.86,224.86,0,0,0,310.07,132a93.69,93.69,0,0,0-15.76,16,33.87,33.87,0,0,0-3.13,4.69,170.28,170.28,0,0,0-16.08,44.37c-.44,2-.75,4.1-1.12,6.15l.22.08c.48-.86,1-1.71,1.43-2.57a260.89,260.89,0,0,1,32.69-47.45A126.66,126.66,0,0,1,326.14,136a80.85,80.85,0,0,1,21-12.12,50.58,50.58,0,0,1,19.5-3.51,27.4,27.4,0,0,1,13.42,3.7,44.45,44.45,0,0,1,6.53,4.61c11,9.49,17.07,21.64,19.13,35.89a155.88,155.88,0,0,1,1.43,18.19,186.58,186.58,0,0,1-2.65,37.08A165,165,0,0,1,397,248.31a188.93,188.93,0,0,1-29.93,53,135.69,135.69,0,0,1-20.42,20.87,65.67,65.67,0,0,1-28.29,13.52,1.55,1.55,0,0,1-1.52-.44,148.61,148.61,0,0,1-45.94-71.87A145.31,145.31,0,0,1,265.58,231,25.82,25.82,0,0,0,265.21,228.44Zm129.16,99.17.18.22c1.55-.36,3.11-.67,4.65-1.07a162.57,162.57,0,0,0,27.47-10.08A134.66,134.66,0,0,0,449,303.84c4.15-3,8-6.37,11.87-9.74A204.64,204.64,0,0,0,483.82,271a113.15,113.15,0,0,0,21.28-38,181.55,181.55,0,0,0,5.42-22,122.53,122.53,0,0,0,2.11-18.21,90,90,0,0,0-2.95-26,75.79,75.79,0,0,0-12.17-26.14,85.31,85.31,0,0,0-18.76-18.36,71.62,71.62,0,0,0-43.28-14A74,74,0,0,0,420.64,110a101.34,101.34,0,0,0-16.26,4.69c-.27.1-.52.25-.84.4,4.71,4.12,8,9.22,11.18,14.24,1.69-.55,3.29-1.15,4.93-1.61a85.15,85.15,0,0,1,21.58-3.09,49.57,49.57,0,0,1,13,1.24c16.78,4.29,29.06,14.2,36.61,29.8a61.14,61.14,0,0,1,5.6,21.34,76.13,76.13,0,0,1-1,20.72,76.94,76.94,0,0,1-7.45,21.48c-7.18,13.94-17.18,25.29-30.63,33.51A61.43,61.43,0,0,1,441.15,260a91.06,91.06,0,0,1-17.44,2.85l-3.28.23c-.15.46-.29.86-.42,1.27-3,9.7-6.26,19.34-10.14,28.74-4.64,11.24-9.74,22.28-14.93,33.28ZM304.67,0C231.54.05,29.85,1.16,29.85,1.16,25.65,32.66,0,123.69,0,123.69c19.6-42,49.74-47.2,98-47.2H220.32a5.45,5.45,0,0,1,4.81,8C165.05,197.1,78.36,347.25,3.84,464.15H115.58C176.2,328.26,252,158.08,317.71,20.68A14.45,14.45,0,0,0,304.67,0ZM185.46,428.7l-10.59,32.69h6l2.52-8.83h10.88l2.49,8.83h6.19L192.32,428.7ZM184.67,448l1.13-4c1-3.45,2-7.16,2.89-10.77h.2c.89,3.61,1.93,7.32,2.92,10.77l1.12,4Zm40.56-11.73c-3.75,0-6.51,1.92-8.86,4.29h-.2l-.44-3.69H211v24.55h5.78V444.65c2.25-2.28,3.89-3.46,6.31-3.46,3.31,0,4.58,1.81,4.58,5.75v14.45h5.78V446.18C233.46,439.86,230.91,436.24,225.23,436.24Zm33,0c-3.75,0-6.51,1.92-8.86,4.29h-.2l-.44-3.69H244v24.55h5.78V444.65c2.25-2.28,3.89-3.46,6.31-3.46,3.31,0,4.58,1.81,4.58,5.75v14.45h5.78V446.18C266.46,439.86,263.91,436.24,258.23,436.24ZM278,434.13h5.61v-5.62H278Zm.15,27.38h5.31V436.76H278.1Zm32.42-12c-.91,2.47-1.64,4.94-2.43,7.42h-.2c-.8-2.48-1.59-4.95-2.46-7.42l-4.74-12.7h-5.85l9.79,24.55h6.58l9.59-24.55h-5.54Zm29-13.28c-6.58,0-12.66,4.74-12.66,12.6s5.91,12.65,13.43,12.65a18.06,18.06,0,0,0,9.62-2.84l-2-3.51a13.53,13.53,0,0,1-6.88,2c-4.57,0-7.79-2.14-8.43-6.59h18a18.63,18.63,0,0,0,.25-2.85C350.94,441,346.88,436.26,339.55,436.26Zm-6.79,10.28a6.83,6.83,0,0,1,7-5.92c3.48,0,5.67,2,6,5.92Zm31.47-7.09v-2.69H359v24.75h5.31v-15a5.23,5.23,0,0,1,5.25-5.57,5,5,0,0,1,4,1.66l4-3.76a8.43,8.43,0,0,0-6.29-2.34A9,9,0,0,0,364.23,439.45Zm33.32,7c-4.6-1-6.41-1.57-6.41-3.27,0-1.47,1.32-2.68,4.5-2.68a15.33,15.33,0,0,1,8.13,2.41l2.66-3.48a19.43,19.43,0,0,0-10.27-3.18c-6.87,0-10.76,3-10.76,7.2,0,3.67,2.91,5.94,9.46,7.29,5.72,1.16,6.8,2,6.8,3.62s-1.6,2.87-5,2.87a18.43,18.43,0,0,1-10.28-3.05l-2.52,3.61a22.51,22.51,0,0,0,12,3.73c7.47,0,11.54-3.34,11.54-7.49C407.44,450.2,405.39,448.14,397.55,446.44Zm29-10.18c-4.37,0-7,.84-9.47,3.59l3.49,3.09c1.45-1.77,2.86-2.4,5.77-2.4,4.11,0,5.77,1.52,5.77,4.66V447h-7c-6,0-9.1,3-9.1,7.18a7.41,7.41,0,0,0,2.08,5.35c1.62,1.52,3.8,2.26,7.08,2.26s5.09-.74,7-2.55v2.26h5.2V444.81C437.38,439.16,433.74,436.26,426.51,436.26Zm5.56,16.21c0,1.77-.36,2.95-1.14,3.69-1.41,1.28-2.91,1.42-4.94,1.42-3.33,0-4.84-1.27-4.84-3.53s1.61-3.59,4.73-3.59h6.19Zm21.79-13v-2.69h-5.2v24.75H454v-15a5.24,5.24,0,0,1,5.26-5.57,5,5,0,0,1,3.95,1.66l4-3.76a8.43,8.43,0,0,0-6.29-2.34A9,9,0,0,0,453.86,439.45Zm34.68,9.39c-.78,2.31-1.67,4.86-2.43,7.25h-.2c-.89-2.47-1.81-5-2.73-7.25l-5-12h-5.77l11,24.26-.59,1.54a6,6,0,0,1-5.91,4.18,7.58,7.58,0,0,1-2.06-.33L473.75,471a12,12,0,0,0,3.49.5c5.92,0,8.87-3.43,11-8.95l10.25-25.67H493ZM464.06,400.3c0,6.26,2.56,10.48,10.06,10.48a23.88,23.88,0,0,0,7.86-1.4l-1.12-4.21a15.16,15.16,0,0,1-5.34,1c-4.15,0-5.68-1.82-5.68-5.88V390.2H481v-4.58H469.84v-7.69h-4.79l-.75,7.69-6.81.27v4.31h6.57ZM502.92,385c-3.73,0-6.49,1.92-8.62,4.22h-.17l.34-5.26v-9.11h-5.78v35.31h5.78V393.43c2.25-2.28,3.89-3.45,6.31-3.45,3.31,0,4.58,1.8,4.58,5.74v14.46h5.78V395C511.14,388.64,508.58,385,502.92,385Z"/></g></svg>