<svg xmlns="http://www.w3.org/2000/svg" width="136.28mm" height="12.8mm" viewBox="0 0 386.31 36.29"><defs><style>.a{fill:#251e1c;}</style></defs><path class="a" d="M34.92,5.67A15.47,15.47,0,0,0,24.91,33a6.85,6.85,0,0,0,2.49-1,16.77,16.77,0,0,0,5.17-6.57,18.76,18.76,0,0,0,1.59-10.22,5.36,5.36,0,0,0-3.5-4.69c-1.32-.26-3.22.14-5.28,1.92a20.44,20.44,0,0,0-2.9,3.3,29,29,0,0,0-2.14,3.46A14.55,14.55,0,0,1,21.15,16a19,19,0,0,1,1.05-2.35,9.35,9.35,0,0,1,1.87-2c1.71-1.39,3.23-2.51,5.13-2.7a4.87,4.87,0,0,1,4.28,1.35c1.17,1.13,1.75,2.43,2.2,5a21.51,21.51,0,0,1-.36,8.55,37.22,37.22,0,0,1-4.27,9.85,17.54,17.54,0,0,1-1.46,2,15.68,15.68,0,0,0,5.33.94,15.48,15.48,0,0,0,0-31m9.94,15.47c-.72,2.94-2.14,5.17-5.73,8.12a16.34,16.34,0,0,1-6.19,2.86s.87-1.81,1.59-3.51c.6-1.43,1.16-3.29,1.16-3.29a8.41,8.41,0,0,0,3.14-.68A8.68,8.68,0,0,0,43,20.32a7.69,7.69,0,0,0,.15-6.15,5.69,5.69,0,0,0-4.29-3.3,8.11,8.11,0,0,0-3.74.46A6.47,6.47,0,0,0,33.9,9.81a9.8,9.8,0,0,1,3.76-.69,7.49,7.49,0,0,1,4.41,1.66,8,8,0,0,1,2.83,4,11,11,0,0,1,0,6.38" transform="translate(-19.44 -3.11)"/><path class="a" d="M77.6,16.52a.71.71,0,0,1-.24.54.73.73,0,0,1-.54.22H74.88v2.14l.11,0c1.46.84,2.24,1.66,2.36,2.45v0a.8.8,0,0,1-.21.64.79.79,0,0,1-.61.26.81.81,0,0,1-.61-.28.71.71,0,0,1-.19-.66,10.24,10.24,0,0,0-.85-1.49V31.37a.66.66,0,0,1-.74.74.65.65,0,0,1-.73-.74V21.52a16.42,16.42,0,0,1-3.32,5.15.35.35,0,0,1-.45.06.31.31,0,0,1-.13-.49,40.87,40.87,0,0,0,3.85-9H70.51a.47.47,0,1,1,0-.93h2.9v-4a.65.65,0,0,1,.73-.74.65.65,0,0,1,.74.74v4H76.1a.7.7,0,0,1,.74-.58.73.73,0,0,1,.54.22A.77.77,0,0,1,77.6,16.52Zm13.22,11.8a.32.32,0,0,1-.47.22q-.27-.11-.6-.27a1,1,0,0,1,0,.16.74.74,0,0,1-.21.59.86.86,0,0,1-.57.28,1.06,1.06,0,0,1-.45-.11v0A12.22,12.22,0,0,1,84,22.94v8.5a.64.64,0,0,1-.71.73.65.65,0,0,1-.74-.73V23.3a15.7,15.7,0,0,1-5.84,6l-.07.05a.32.32,0,0,1-.47,0,.33.33,0,0,1,0-.52,29,29,0,0,0,5.44-7.09H78.07c-.32,0-.47-.15-.47-.46a.41.41,0,0,1,.47-.47h4.5V17.44H79.45A13.19,13.19,0,0,1,77.67,20a.35.35,0,0,1-.43.09.32.32,0,0,1-.15-.49,26.88,26.88,0,0,0,1.51-3.84c.17-.55.32-1.1.47-1.65a.87.87,0,0,1,.94-.73.94.94,0,0,1,1,.95.9.9,0,0,1-.5.85,10.2,10.2,0,0,1-.55,1.36h2.65V12.44a.65.65,0,0,1,.74-.73.64.64,0,0,1,.71.73V16.5h3.1a.74.74,0,0,1,.82-.71.84.84,0,0,1,.83.82.75.75,0,0,1-.25.59.78.78,0,0,1-.58.24H84v3.39h4.26a.82.82,0,0,1,1.41-.49.78.78,0,0,1,.24.58.73.73,0,0,1-.76.82.26.26,0,0,1-.11,0H84.42a13.28,13.28,0,0,0,1.78,2.88,10.67,10.67,0,0,0,4.42,3.23A.3.3,0,0,1,90.82,28.32Z" transform="translate(-19.44 -3.11)"/><path class="a" d="M112.31,16.43a.8.8,0,0,1-.78.9h-7q1.11,9.27,5.69,12.41l.53-1a.31.31,0,0,1,.49-.13.29.29,0,0,1,.16.46l-.38.72,0,0a1.09,1.09,0,0,1,1.07,1.07,1.06,1.06,0,0,1-1.07,1.07,1.5,1.5,0,0,1-.47-.08q-4.87-2.39-6.82-9.86a34.61,34.61,0,0,1-.82-4.61H92.69a.49.49,0,0,1,0-1h10.14c-.08-1-.14-2.2-.17-3.68l0-.23a.8.8,0,0,1,1.35-.6.74.74,0,0,1,.24.56v.22c0,1.38.12,2.63.22,3.73h6.11a.78.78,0,0,1,.87-.81.83.83,0,0,1,.63.27A.89.89,0,0,1,112.31,16.43Zm-9,10.06a.34.34,0,0,1-.2.45,79.27,79.27,0,0,1-8.63,3.52,1,1,0,0,1-.85.47,1,1,0,0,1-.72-.31,1,1,0,0,1-.3-.72.93.93,0,0,1,.88-1c.58-.11,1.78-.4,3.58-.89V21.65H93.23a.41.41,0,0,1-.47-.47c0-.31.15-.46.47-.46h7.46a.76.76,0,0,1,.85-.74.81.81,0,0,1,.6.24.79.79,0,0,1,.25.58.82.82,0,0,1-.25.61.81.81,0,0,1-.6.24h-2.9v5.93c1.46-.43,2.87-.87,4.24-1.31A.33.33,0,0,1,103.35,26.49Zm5.37-12.24a.86.86,0,0,1-.18.65.84.84,0,0,1-.58.33.79.79,0,0,1-.63-.18.84.84,0,0,1-.33-.58v-.18l-1-1.49a.29.29,0,0,1,0-.31.33.33,0,0,1,.45-.25,4.65,4.65,0,0,1,1.07.52,2.75,2.75,0,0,1,1.23,1.31Z" transform="translate(-19.44 -3.11)"/><path class="a" d="M134.47,19.58a.33.33,0,0,1-.45.27l-.69-.2a.75.75,0,0,1,0,.26.9.9,0,0,1-.27.58.72.72,0,0,1-.58.23.86.86,0,0,1-.27,0,15.06,15.06,0,0,1-5.59-4,14.73,14.73,0,0,1-2.26-3.39,1,1,0,0,1-.37.16l-.07,0a22.07,22.07,0,0,1-8.83,8.09.33.33,0,0,1-.45-.11.34.34,0,0,1,.07-.51A30.9,30.9,0,0,0,119,17a39.46,39.46,0,0,0,2.89-3.55L123,11.91v0a1.05,1.05,0,0,1,.67-.45,1,1,0,0,1,.88.26,1,1,0,0,1,.32.86l0,.06a11.58,11.58,0,0,0,2.23,2.63,16.39,16.39,0,0,0,7.07,3.88A.33.33,0,0,1,134.47,19.58Zm-1.78,3.9a.89.89,0,0,1-.27.65.92.92,0,0,1-.65.26h-8.25a40.27,40.27,0,0,1-3,5c2.27-.19,5-.45,8.31-.76-.62-.92-1.22-1.72-1.78-2.41a.32.32,0,0,1,0-.42.33.33,0,0,1,.52-.13Q131.4,28,132,30.77a1.35,1.35,0,0,1,0,.4,1,1,0,0,1-1.75.41,1,1,0,0,1-.22-.83,9.26,9.26,0,0,0-.78-1.45l-.06,0a94.51,94.51,0,0,1-11,1.92.93.93,0,0,1-.73.33,1,1,0,0,1-1-1,.85.85,0,0,1,.82-.95l2.3-.18a47.15,47.15,0,0,0,1.85-5.09H116a.43.43,0,0,1-.49-.49.44.44,0,0,1,.49-.51h14.81a.84.84,0,0,1,.93-.85.9.9,0,0,1,.65.28A.93.93,0,0,1,132.69,23.48Zm-4.75-3.81a.83.83,0,0,1-.27.63.91.91,0,0,1-.65.26h-7.2a.49.49,0,1,1,0-1h6.36a.79.79,0,0,1,.89-.78.82.82,0,0,1,.61.25A.87.87,0,0,1,127.94,19.67Z" transform="translate(-19.44 -3.11)"/><path class="a" d="M145,22.34a.88.88,0,0,1-.76,1,.79.79,0,0,1-.61-.16.9.9,0,0,1-.35-.57,19.38,19.38,0,0,0-1.45-1.76.51.51,0,0,1-.09-.16V31.08a.76.76,0,1,1-1.51,0V21.9a15.85,15.85,0,0,1-3.66,2.61.3.3,0,0,1-.42-.14.3.3,0,0,1,.09-.49,18.7,18.7,0,0,0,1.87-1.69,38.66,38.66,0,0,0,4.41-5.42h-5.41a.47.47,0,1,1,0-.94h3.23V12.76a.75.75,0,0,1,.76-.76.71.71,0,0,1,.53.22.74.74,0,0,1,.23.54v3.07h1.29a.92.92,0,0,1,.71-.31.89.89,0,0,1,.65.27.87.87,0,0,1,.27.64.84.84,0,0,1-.63.87l-.13,0a24.59,24.59,0,0,1-2.3,3,.3.3,0,0,1,0,.13.33.33,0,0,1,.47-.27,9.23,9.23,0,0,1,1.32.61,2.88,2.88,0,0,1,1.42,1.29ZM156.23,30a.82.82,0,0,1-.81.89H144.21a.47.47,0,1,1,0-.93h5.22V20.07h-4a.47.47,0,0,1,0-.94h4v-6.2a.77.77,0,0,1,.23-.56.78.78,0,0,1,.57-.24.75.75,0,0,1,.55.24.77.77,0,0,1,.23.56v6.2h3.21a.75.75,0,0,1,.83-.76.86.86,0,0,1,.6.25.85.85,0,0,1-.6,1.45h-4V30h3.46a.88.88,0,0,1,.27-.61.89.89,0,0,1,.62-.24.82.82,0,0,1,.61.25A.9.9,0,0,1,156.23,30Z" transform="translate(-19.44 -3.11)"/><path class="a" d="M200.57,36a1.42,1.42,0,0,1-.42,1,1.34,1.34,0,0,1-1,.42,1.43,1.43,0,0,1-1-.42,1.4,1.4,0,0,1-.44-1V35H182.45v1a1.42,1.42,0,0,1-.42,1,1.35,1.35,0,0,1-1,.42,1.42,1.42,0,0,1-1-.42,1.4,1.4,0,0,1-.44-1V7.11a1.35,1.35,0,0,1,.44-1,1.42,1.42,0,0,1,1-.42,1.37,1.37,0,0,1,1.35.92H197.8a1.43,1.43,0,0,1,2.35-.5,1.37,1.37,0,0,1,.42,1Zm-2.89-16.46V8.26H182.45V19.53Zm0,13.85V21.19H182.45V33.38Z" transform="translate(-19.44 -3.11)"/><path class="a" d="M251.33,36.47a1.61,1.61,0,0,1-1.58,1.78l-10.17,0a5.23,5.23,0,0,1-3.72-1,5,5,0,0,1-1.07-3.66l0-15h-4.94a1.56,1.56,0,0,1,.75,1.63,1.67,1.67,0,0,1-.28.71,22.68,22.68,0,0,1-1.27,8Q226,37.7,216.91,39.4a.6.6,0,0,1-.71-.4.56.56,0,0,1,.35-.83,15.67,15.67,0,0,0,8.23-6.81,20.05,20.05,0,0,0,2.5-7.83c.05-1.27.09-2.53.11-3.8a1.59,1.59,0,0,1,.76-1.19H216.39c-.6,0-.91-.29-.91-.87a.81.81,0,0,1,.91-.91h15.36V4.54a1.36,1.36,0,0,1,.41-1,1.33,1.33,0,0,1,1-.42,1.42,1.42,0,0,1,1.42,1.43V16.76h12.9A1.43,1.43,0,0,1,249,15.42a1.47,1.47,0,0,1,1.08.45,1.52,1.52,0,0,1,.46,1.13A1.55,1.55,0,0,1,249,18.54H237.6V33.62c0,1,.09,1.5.26,1.66a3.36,3.36,0,0,0,1.72.24h8V33.3a.64.64,0,0,1,1.27,0v1.51a1.59,1.59,0,0,1,.67-.16,1.81,1.81,0,0,1,1.82,1.82ZM227.51,12.33a1.69,1.69,0,0,1-.37,1.47,1.72,1.72,0,0,1-1.37.63,1.7,1.7,0,0,1-1.36-.63,1.67,1.67,0,0,1-.38-1.47,23.32,23.32,0,0,0-3-4.67A.63.63,0,0,1,221,7a.56.56,0,0,1,.84-.28,14.83,14.83,0,0,1,2.61,1.63,8.1,8.1,0,0,1,3.08,3.83Zm17.37-4.39a1.61,1.61,0,0,1-1.38,1.78l-.08,0a21.16,21.16,0,0,1-5.26,5.1.6.6,0,0,1-.72,0,.56.56,0,0,1-.16-.87c.37-.55,1.72-2.85,4-6.88l0-.08A1.76,1.76,0,0,1,243,6a1.84,1.84,0,0,1,1.35.56A1.8,1.8,0,0,1,244.88,7.94Z" transform="translate(-19.44 -3.11)"/><path class="a" d="M290,15.81c-.16,1.09-1.13,2.72-2.89,4.91a44.11,44.11,0,0,1-7.48,7.08,45.24,45.24,0,0,1-11.47,6.33.85.85,0,1,1-.6-1.58,40.83,40.83,0,0,0,13.5-9.3c3-3,4.93-5.52,5.85-7.56l-.2-.15c-.55-.5-.95-.72-1.18-.64q-1.9.55-7.84,1.55a26.72,26.72,0,0,1-3.24.23c-3.09,0-4.92-.77-5.5-2.33a.76.76,0,0,1,.12-.79.77.77,0,0,1,1.22-.2,5.51,5.51,0,0,0,3.25.71,49.61,49.61,0,0,0,9.06-1.26,21.93,21.93,0,0,1,2.89-.52,5.35,5.35,0,0,1,3.76,1.94c.1.11.22.24.35.4A1.08,1.08,0,0,1,290,15.81ZM297.31,10a3.32,3.32,0,0,1-1,2.43,3.35,3.35,0,0,1-2.44,1A3.45,3.45,0,0,1,290.42,10a3.35,3.35,0,0,1,1-2.44,3.31,3.31,0,0,1,2.43-1A3.43,3.43,0,0,1,297.31,10ZM296,10a2.15,2.15,0,0,0-.63-1.53,2.11,2.11,0,0,0-1.55-.65,2.09,2.09,0,0,0-1.54.65,2.15,2.15,0,0,0-.63,1.53,2.15,2.15,0,0,0,2.17,2.17,2.13,2.13,0,0,0,1.55-.63A2.11,2.11,0,0,0,296,10Z" transform="translate(-19.44 -3.11)"/><path class="a" d="M325.48,16.41a1.21,1.21,0,0,1,.27.75,2.64,2.64,0,0,1-.55,1.34,14.14,14.14,0,0,0-2,7.05,5.39,5.39,0,0,1,1.15.47l.2.16a1.26,1.26,0,0,1,.79,1.23,1.39,1.39,0,0,1-.4,1,1.32,1.32,0,0,1-1,.41,1.26,1.26,0,0,1-1-.51,11.2,11.2,0,0,0-4.11-.56q-2.22,0-7,.48l-.56,0v1a1.21,1.21,0,0,1,.28.79,1.27,1.27,0,0,1-.42,1,1.36,1.36,0,0,1-1,.39,1.25,1.25,0,0,1-1.38-1.34q-.12-3.4-.12-6.21c0-3.17-.2-5.13-.51-5.9s-1.41-1.6-3.13-2.1a.77.77,0,0,1-.59-.87q0-.83.87-.75a7,7,0,0,1,4.23,1.35,78.08,78.08,0,0,0,10.92-1.35,6.57,6.57,0,0,1,1.23-.12,4.51,4.51,0,0,1,3.76,2.22Zm-3,.75a.72.72,0,0,0-.75-.56,12.82,12.82,0,0,0-1.74.2q-1.78.4-3.6.75a18.27,18.27,0,0,1-3.68.44,11.29,11.29,0,0,1-1.94-.16,20.78,20.78,0,0,1,.43,4.08c0,1.4,0,2.81,0,4.23,1.64-.24,3.27-.46,4.91-.67a33.49,33.49,0,0,1,4.87-.24,30,30,0,0,1,1.38-7.6C322.4,17.5,322.46,17.34,322.51,17.16Z" transform="translate(-19.44 -3.11)"/><path class="a" d="M364.45,28.28a1.36,1.36,0,0,1-.68,1.14l-.19.16q-6.1,2.9-9.93,2.89-6.88,0-6.69-8.74c0-.72.08-1.51.16-2.38a18,18,0,0,1-6.45,1.82,3.89,3.89,0,0,1-2-.41,4.71,4.71,0,0,1-1.4-1.53.74.74,0,0,1,.19-1,.79.79,0,0,1,1.23.07,1.59,1.59,0,0,0,1.31.44q1.93,0,7.32-2.26c.13-1.26.19-2.25.19-3q0-3.6-2.53-4.91a.76.76,0,0,1-.36-1.15.71.71,0,0,1,.95-.43h0c3,.76,4.55,2.68,4.55,5.73a22.84,22.84,0,0,1-.19,2.62q5.89-2.5,8.34-2.65a5.2,5.2,0,0,1,4.28,2.21,1.59,1.59,0,0,1,.35,1.23,2.93,2.93,0,0,1-1.14,1.66c-.43.37-1.3,1-2.62,1.9a40.81,40.81,0,0,0-3.67,2.65.79.79,0,0,1-1.23-.08.78.78,0,0,1,.08-1.19l2.41-2.29c.85-.82,1.81-1.81,2.89-3l-.08-.08a2.13,2.13,0,0,0-1.74-.63q-1.9.15-8.23,3.09-.19,1.58-.24,2.76a12.62,12.62,0,0,0,.52,4.71,3.44,3.44,0,0,0,3.56,2.3c2.06,0,4.94-.89,8.66-2.65a1.29,1.29,0,0,1,1-.4,1.37,1.37,0,0,1,1.35,1.35Z" transform="translate(-19.44 -3.11)"/><path class="a" d="M405.75,28.59A1.35,1.35,0,0,1,404.37,30a1.21,1.21,0,0,1-1.23-.87,58.25,58.25,0,0,0-7.44-7.4A36,36,0,0,1,377.19,31.8a.76.76,0,0,1-1-.64.78.78,0,0,1,.59-1,37.37,37.37,0,0,0,20.06-13.61,1.08,1.08,0,0,1,.28-.36c.58-.77.84-1.32.79-1.66q0-.12-.36-.24a18.54,18.54,0,0,0-2.8.79,26.56,26.56,0,0,1-7.56,1.74,5.74,5.74,0,0,1-2.71-.53,5.78,5.78,0,0,1-1.92-2,.75.75,0,0,1,.32-1,.72.72,0,0,1,1.16.16c.31.45,1,.67,2.16.67a38.46,38.46,0,0,0,7.64-1.34,22.68,22.68,0,0,1,3.91-.79,1.91,1.91,0,0,1,.56.07c1.63.51,2.45,1.35,2.45,2.54a4.26,4.26,0,0,1-1.27,2.65c-.52.71-1.34,1.74-2.45,3.08q6.14,4.16,8.47,7.44l.08.2A1.18,1.18,0,0,1,405.75,28.59Z" transform="translate(-19.44 -3.11)"/></svg>